<?xml version="1.0" standalone="no"?><!DOCTYPE svg PUBLIC "-//W3C//DTD SVG 1.1//EN" "http://www.w3.org/Graphics/SVG/1.1/DTD/svg11.dtd"><svg t="1567996918552" class="icon" viewBox="0 0 1024 1024" version="1.1" xmlns="http://www.w3.org/2000/svg" p-id="1497" xmlns:xlink="http://www.w3.org/1999/xlink" width="200" height="200"><defs><style type="text/css"></style></defs><path d="M271.38 429.637a245.5 245.5 0 0 1-3.395-40.777c0-134.68 109.18-243.86 243.86-243.86s243.86 109.18 243.86 243.86a245.5 245.5 0 0 1-3.394 40.776C875.967 430.312 976 530.763 976 654.578c0 124.235-100.712 224.947-224.946 224.947-62.743 0-119.486-25.688-160.287-67.12l0.003-0.004c-21.44-21.822-21.322-56.893 0.354-78.57 21.796-21.795 57.133-21.795 78.928 0 0.693 0.694 1.365 1.4 2.014 2.12 20.427 19.87 48.317 32.108 79.065 32.108 62.631 0 113.404-50.772 113.404-113.403 0-62.631-50.773-113.403-113.404-113.403-28.739 0-54.981 10.69-74.967 28.311l-0.096-0.096-1.886 1.886c-2.2 2.033-4.32 4.152-6.353 6.353l-4.306 4.305 0.076 0.077-229.876 229.876-0.03-0.03c-40.833 41.708-97.767 67.59-160.747 67.59C148.712 879.525 48 778.813 48 654.578c0-123.711 99.866-224.098 223.38-224.94z m1.644 338.422c62.63 0 113.403-50.772 113.403-113.403 0-62.631-50.772-113.403-113.403-113.403-62.631 0-113.404 50.772-113.404 113.403 0 62.63 50.773 113.403 113.404 113.403zM511.845 521.1c73.034 0 132.24-59.206 132.24-132.24 0-73.033-59.206-132.239-132.24-132.239s-132.24 59.206-132.24 132.24c0 73.033 59.206 132.239 132.24 132.239z" fill="#06A7FF" p-id="1498"></path><path d="M643.351 402.868a56.966 56.966 0 0 1-0.352-6.334c0-31.123 25.23-56.353 56.353-56.353s56.353 25.23 56.353 56.353c0 2.39-0.15 4.745-0.438 7.057-7.616 127.82-113.688 229.128-243.422 229.128-129.734 0-235.806-101.307-243.422-229.128a56.908 56.908 0 0 1-0.438-7.057c0-31.123 25.23-56.353 56.353-56.353s56.353 25.23 56.353 56.353c0 2.141-0.12 4.255-0.352 6.334 6.996 66.448 63.204 118.23 131.506 118.23 68.302 0 124.51-51.782 131.506-118.23z" fill="#FF436A" p-id="1499"></path></svg>