<?xml version="1.0" encoding="UTF-8"?>
<!DOCTYPE svg PUBLIC "-//W3C//DTD SVG 1.1//EN" "http://www.w3.org/Graphics/SVG/1.1/DTD/svg11.dtd">
<svg xmlns="http://www.w3.org/2000/svg" version="1.1" width="140px" height="150px" style="shape-rendering:geometricPrecision; text-rendering:geometricPrecision; image-rendering:optimizeQuality; fill-rule:evenodd; clip-rule:evenodd" xmlns:xlink="http://www.w3.org/1999/xlink">
<g><path style="opacity:0.826" fill="#231916" d="M 38.5,-0.5 C 59.5,-0.5 80.5,-0.5 101.5,-0.5C 121.167,5.16667 133.833,17.8333 139.5,37.5C 139.5,59.8333 139.5,82.1667 139.5,104.5C 135.672,113.779 128.672,119.279 118.5,121C 108.938,130.729 99.2716,140.229 89.5,149.5C 86.1667,149.5 82.8333,149.5 79.5,149.5C 78.3065,148.728 77.3065,147.728 76.5,146.5C 74.78,143.111 74.1134,139.444 74.5,135.5C 77.5486,129.613 81.8819,124.779 87.5,121C 84.5,120.333 81.5,120.333 78.5,121C 70.5,129 62.5,137 54.5,145C 51.2976,146.483 47.9643,146.817 44.5,146C 42.6763,145.34 41.343,144.173 40.5,142.5C 38.7779,139.08 38.1113,135.414 38.5,131.5C 40.8926,127.598 43.8926,124.098 47.5,121C 44.8333,120.333 42.1667,120.333 39.5,121C 35.4221,125.749 30.7554,129.749 25.5,133C 20.2827,134.53 16.2827,133.03 13.5,128.5C 12.6758,125.236 12.3424,121.902 12.5,118.5C 9.98045,116.737 7.64712,114.737 5.5,112.5C 3.75449,109.337 2.25449,106.004 1,102.5C 0.188803,80.7903 0.35547,59.1236 1.5,37.5C 2.92381,35.4855 3.59047,33.1522 3.5,30.5C 10.0719,14.3856 21.7385,4.05231 38.5,-0.5 Z M 99.5,5.5 C 117.736,9.90231 129.236,21.2356 134,39.5C 134.667,60.5 134.667,81.5 134,102.5C 132.746,107.249 129.912,110.582 125.5,112.5C 127.241,110.023 128.741,107.356 130,104.5C 130.667,82.8333 130.667,61.1667 130,39.5C 125.581,22.9192 115.415,11.5859 99.5,5.5 Z M 34.5,117.5 C 31.4372,121.566 27.7706,124.899 23.5,127.5C 26.5628,123.434 30.2294,120.101 34.5,117.5 Z M 74.5,117.5 C 67.3692,125.132 60.0358,132.632 52.5,140C 51.255,140.791 49.9217,141.291 48.5,141.5C 55.9642,133.535 63.6309,125.702 71.5,118C 72.448,117.517 73.448,117.351 74.5,117.5 Z M 113.5,117.5 C 105.036,126.465 96.369,135.298 87.5,144C 86.552,144.483 85.552,144.649 84.5,144.5C 93.4519,136.215 102.119,127.548 110.5,118.5C 111.325,117.614 112.325,117.281 113.5,117.5 Z"/></g>
<g><path style="opacity:0.996" fill="#00e4fd" d="M 95.5,4.5 C 96.5676,5.43448 97.901,5.76781 99.5,5.5C 115.415,11.5859 125.581,22.9192 130,39.5C 130.667,61.1667 130.667,82.8333 130,104.5C 128.741,107.356 127.241,110.023 125.5,112.5C 124.833,112.5 124.5,112.833 124.5,113.5C 123.508,113.328 122.842,113.662 122.5,114.5C 119.327,115.042 116.327,116.042 113.5,117.5C 112.325,117.281 111.325,117.614 110.5,118.5C 102.119,127.548 93.4519,136.215 84.5,144.5C 82.2431,145.803 80.4098,145.136 79,142.5C 78.3333,140.167 78.3333,137.833 79,135.5C 84.3333,130.167 89.6667,124.833 95,119.5C 95.4828,118.552 95.6495,117.552 95.5,116.5C 88.4122,116.205 81.4122,116.538 74.5,117.5C 73.448,117.351 72.448,117.517 71.5,118C 63.6309,125.702 55.9642,133.535 48.5,141.5C 42.8442,141.133 41.0109,138.133 43,132.5C 47.3333,128.167 51.6667,123.833 56,119.5C 56.4828,118.552 56.6495,117.552 56.5,116.5C 49.1104,116.236 41.7771,116.57 34.5,117.5C 30.2294,120.101 26.5628,123.434 23.5,127.5C 22.8333,127.5 22.5,127.833 22.5,128.5C 18.3586,128.696 16.0252,126.696 15.5,122.5C 16.6484,120.239 17.1484,117.905 17,115.5C 11.2734,112.773 7.27345,108.44 5,102.5C 4.33333,81.5 4.33333,60.5 5,39.5C 9.56502,22.6008 20.065,11.1008 36.5,5C 56.1558,3.21034 75.8224,3.04368 95.5,4.5 Z M 34.5,117.5 C 31.4372,121.566 27.7706,124.899 23.5,127.5C 26.5628,123.434 30.2294,120.101 34.5,117.5 Z M 74.5,117.5 C 67.3692,125.132 60.0358,132.632 52.5,140C 51.255,140.791 49.9217,141.291 48.5,141.5C 55.9642,133.535 63.6309,125.702 71.5,118C 72.448,117.517 73.448,117.351 74.5,117.5 Z"/></g>
<g><path style="opacity:1" fill="#1c929e" d="M 3.5,30.5 C 3.59047,33.1522 2.92381,35.4855 1.5,37.5C 1.5,36.8333 1.5,36.1667 1.5,35.5C 1.40206,33.4471 2.06873,31.7804 3.5,30.5 Z"/></g>
<g><path style="opacity:0.937" fill="#03dbf0" d="M 1.5,35.5 C 1.5,36.1667 1.5,36.8333 1.5,37.5C 0.35547,59.1236 0.188803,80.7903 1,102.5C 2.25449,106.004 3.75449,109.337 5.5,112.5C 3.26321,110.353 1.26321,108.02 -0.5,105.5C -0.5,83.1667 -0.5,60.8333 -0.5,38.5C 0.166667,37.5 0.833333,36.5 1.5,35.5 Z"/></g>
<g><path style="opacity:1" fill="#020607" d="M 24.5,81.5 C 33.1382,80.1311 38.1382,83.6311 39.5,92C 37.8513,100.839 32.518,104.173 23.5,102C 15.2068,94.6348 15.5402,87.8015 24.5,81.5 Z"/></g>
<g><path style="opacity:1" fill="#010506" d="M 106.5,81.5 C 116.84,80.0225 122.007,84.3559 122,94.5C 119.202,101.648 114.036,104.148 106.5,102C 98.5718,95.2279 98.5718,88.3946 106.5,81.5 Z"/></g>
<g><path style="opacity:1" fill="#091516" d="M 63.5,94.5 C 67.1817,94.3347 70.8484,94.5014 74.5,95C 76.0767,98.4815 75.0767,101.148 71.5,103C 64.3859,104.058 61.7192,101.225 63.5,94.5 Z"/></g>
<g><path style="opacity:0.62" fill="#0fc3d1" d="M 12.5,118.5 C 12.3424,121.902 12.6758,125.236 13.5,128.5C 11.2649,127.714 10.2649,126.048 10.5,123.5C 10.4357,121.443 11.1024,119.777 12.5,118.5 Z"/></g>
<g><path style="opacity:0.447" fill="#0bc9d7" d="M 38.5,131.5 C 38.1113,135.414 38.7779,139.08 40.5,142.5C 38.5891,142.426 37.4224,141.426 37,139.5C 36.115,136.462 36.615,133.795 38.5,131.5 Z"/></g>
<g><path style="opacity:0.843" fill="#10bccb" d="M 74.5,135.5 C 74.1134,139.444 74.78,143.111 76.5,146.5C 72.7481,144.206 71.5814,140.872 73,136.5C 73.3826,135.944 73.8826,135.611 74.5,135.5 Z"/></g>
</svg>
