<?xml version="1.0" standalone="no"?><!DOCTYPE svg PUBLIC "-//W3C//DTD SVG 1.1//EN" "http://www.w3.org/Graphics/SVG/1.1/DTD/svg11.dtd"><svg height="1024" node-id="1" sillyvg="true" template-height="1024" template-width="1024" version="1.1" viewBox="0 0 1024 1024" width="1024" xmlns="http://www.w3.org/2000/svg" xmlns:xlink="http://www.w3.org/1999/xlink"><defs node-id="123"></defs><path d="M 3.24 0.24 L 1027.24 0.24 L 1027.24 1024.24 L 3.24 1024.24 Z" fill="#ffffff" fill-opacity="0" fill-rule="nonzero" id="矩形" node-id="5" stroke="none" target-height="1024" target-width="1024" target-x="3.2382965" target-y="0.23812866"></path><g node-id="125"><path d="M 821.64 300.61 L 815.25 300.44 L 811.80 300.42 L 808.50 300.67 L 806.38 301.07 L 804.56 301.72 L 803.00 302.60 L 801.44 304.01 L 800.33 305.54 L 799.59 307.18 L 799.19 308.95 L 799.09 310.76 L 799.32 312.64 L 800.17 315.37 L 801.61 317.97 L 803.53 320.28 L 805.89 322.18 L 803.99 346.09 L 803.78 350.69 L 803.88 354.83 L 804.20 357.51 L 804.78 359.88 L 805.60 361.96 L 806.76 363.84 L 808.30 365.40 L 810.29 366.67 L 812.52 367.52 L 815.41 368.04 L 819.13 368.14 L 819.20 405.10 L 814.50 408.77 L 810.25 412.87 L 806.41 417.42 L 802.97 422.45 L 799.94 428.00 L 797.30 434.12 L 795.09 440.86 L 792.93 449.27 L 791.76 455.41 L 778.31 455.33 L 777.17 455.34 L 776.93 455.17 L 754.28 455.37 L 752.67 447.31 L 752.07 436.03 L 751.66 430.08 L 751.12 424.31 L 750.32 418.74 L 749.28 414.06 L 748.31 411.11 L 747.21 408.87 L 746.02 407.22 L 743.94 405.33 L 741.94 404.08 L 739.97 403.35 L 737.91 403.09 L 735.98 403.34 L 734.12 404.10 L 732.49 405.29 L 731.01 407.02 L 729.69 409.39 L 727.47 414.69 L 697.32 414.16 L 667.32 414.09 L 637.47 414.48 L 636.19 414.39 L 635.55 414.39 L 634.99 414.55 L 634.55 414.93 L 634.23 415.72 L 634.23 416.22 L 634.45 416.67 L 634.84 416.99 L 635.32 417.10 L 727.13 417.44 L 727.11 424.40 L 635.06 424.51 L 634.45 424.73 L 634.32 425.37 L 634.48 426.60 L 634.81 427.30 L 635.55 427.54 L 727.07 427.52 L 727.96 432.58 L 729.47 437.56 L 731.63 442.51 L 734.48 447.45 L 734.99 447.94 L 735.70 448.08 L 736.56 448.14 L 737.24 448.37 L 734.96 448.56 L 734.28 448.84 L 734.11 449.56 L 734.62 454.99 L 626.77 454.91 L 610.92 425.27 L 611.84 209.26 L 612.05 208.17 L 612.61 207.27 L 613.46 206.63 L 614.52 206.34 L 619.43 205.69 L 621.95 205.38 L 624.34 205.24 L 699.00 205.03 L 810.36 205.05 L 813.00 205.27 L 815.06 205.87 L 816.67 206.79 L 817.90 208.02 L 818.82 209.61 L 819.41 211.64 L 819.62 214.23 L 819.59 256.81 L 819.73 299.38 L 819.92 299.96 L 820.48 300.19 L 821.21 300.33 L 821.64 300.61 Z M 717.32 228.34 L 717.16 226.56 L 716.66 224.87 L 715.84 223.30 L 714.71 221.91 L 713.34 220.77 L 711.79 219.93 L 710.10 219.40 L 708.32 219.21 L 685.34 219.05 L 682.91 219.36 L 680.75 220.26 L 678.91 221.66 L 677.48 223.49 L 676.55 225.63 L 676.21 228.05 L 676.05 250.33 L 676.22 252.11 L 676.72 253.80 L 677.54 255.37 L 678.66 256.76 L 680.04 257.90 L 681.59 258.74 L 683.28 259.27 L 685.05 259.46 L 708.04 259.62 L 710.47 259.31 L 712.62 258.41 L 714.47 257.01 L 715.90 255.18 L 716.82 253.04 L 717.17 250.62 L 717.32 228.34 Z M 778.50 220.67 L 778.37 220.04 L 778.02 219.53 L 777.51 219.18 L 776.87 219.06 L 752.15 219.14 L 751.53 219.27 L 751.00 219.62 L 750.65 220.15 L 750.53 220.77 L 750.53 220.87 L 750.67 221.50 L 751.01 222.01 L 751.53 222.36 L 752.16 222.48 L 776.88 222.40 L 777.50 222.27 L 778.03 221.92 L 778.38 221.39 L 778.50 220.77 L 778.50 220.67 Z M 803.46 231.17 L 749.20 230.85 L 748.61 230.93 L 748.12 231.21 L 747.76 231.66 L 747.59 232.23 L 747.65 232.82 L 747.92 233.32 L 748.35 233.69 L 748.91 233.89 L 753.47 234.18 L 761.82 234.30 L 772.36 234.28 L 783.47 234.11 L 793.56 233.82 L 801.00 233.41 L 803.57 233.11 L 804.20 232.91 L 804.81 232.07 L 804.84 231.61 L 804.50 231.32 L 803.46 231.17 Z M 784.45 243.26 L 784.33 242.65 L 783.98 242.13 L 783.47 241.78 L 782.86 241.66 L 750.10 241.60 L 749.49 241.72 L 748.98 242.07 L 748.63 242.58 L 748.51 243.19 L 748.51 243.26 L 748.63 243.87 L 748.97 244.38 L 749.49 244.73 L 750.10 244.85 L 782.85 244.91 L 783.46 244.79 L 783.98 244.44 L 784.33 243.93 L 784.45 243.32 L 784.45 243.26 Z M 793.24 252.79 L 793.15 252.31 L 792.88 251.91 L 792.48 251.64 L 792.01 251.54 L 749.35 251.40 L 748.86 251.49 L 748.47 251.75 L 748.21 252.14 L 748.11 252.63 L 748.11 252.69 L 748.20 253.17 L 748.47 253.57 L 748.87 253.84 L 749.34 253.93 L 792.00 254.08 L 792.48 253.99 L 792.87 253.72 L 793.14 253.34 L 793.24 252.85 L 793.24 252.79 Z M 802.34 263.26 L 802.23 262.71 L 801.91 262.24 L 801.44 261.93 L 800.89 261.81 L 734.22 261.70 L 733.67 261.81 L 733.20 262.12 L 732.88 262.59 L 732.77 263.14 L 732.74 279.34 L 732.85 279.90 L 733.16 280.37 L 733.63 280.68 L 734.19 280.79 L 800.86 280.91 L 801.41 280.80 L 801.88 280.49 L 802.20 280.02 L 802.31 279.47 L 802.34 263.26 Z M 685.24 280.72 L 685.13 280.14 L 684.80 279.66 L 684.31 279.34 L 683.74 279.23 L 635.07 279.48 L 634.49 279.61 L 634.02 279.93 L 633.70 280.40 L 633.58 280.99 L 633.58 281.08 L 633.70 281.65 L 634.03 282.14 L 634.51 282.46 L 635.09 282.57 L 683.76 282.32 L 684.34 282.19 L 684.81 281.87 L 685.13 281.40 L 685.24 280.81 L 685.24 280.72 Z M 710.19 288.92 L 710.10 288.49 L 709.86 288.14 L 709.52 287.90 L 709.08 287.81 L 634.82 287.81 L 634.39 287.90 L 634.04 288.14 L 633.80 288.49 L 633.71 288.92 L 633.71 288.98 L 633.80 289.42 L 634.04 289.77 L 634.39 290.00 L 634.82 290.09 L 709.08 290.09 L 709.52 290.00 L 709.86 289.77 L 710.10 289.42 L 710.19 288.98 L 710.19 288.92 Z M 779.19 299.56 L 779.06 299.25 L 778.76 299.13 L 634.48 299.13 L 634.18 299.25 L 634.05 299.56 L 634.05 301.04 L 634.18 301.35 L 634.48 301.47 L 778.76 301.47 L 779.06 301.35 L 779.19 301.04 L 779.19 299.56 Z M 769.05 309.93 L 768.90 309.56 L 768.52 309.40 L 634.96 308.46 L 634.58 308.62 L 634.43 308.99 L 634.42 310.08 L 634.57 310.46 L 634.94 310.62 L 768.51 311.55 L 768.89 311.40 L 769.04 311.02 L 769.05 309.93 Z M 654.27 319.46 L 654.18 318.98 L 653.93 318.59 L 653.55 318.32 L 653.07 318.22 L 635.14 317.94 L 634.66 318.03 L 634.27 318.28 L 634.00 318.66 L 633.90 319.14 L 633.89 319.75 L 633.98 320.23 L 634.23 320.62 L 634.61 320.88 L 635.09 320.99 L 653.02 321.27 L 653.50 321.18 L 653.89 320.93 L 654.16 320.55 L 654.26 320.07 L 654.27 319.46 Z M 789.33 321.05 L 789.24 320.58 L 788.98 320.19 L 788.58 319.92 L 788.11 319.83 L 698.62 319.67 L 698.15 319.76 L 697.75 320.03 L 697.49 320.42 L 697.40 320.89 L 697.40 320.99 L 697.49 321.45 L 697.75 321.85 L 698.15 322.12 L 698.61 322.21 L 788.11 322.37 L 788.58 322.27 L 788.97 322.01 L 789.24 321.61 L 789.33 321.15 L 789.33 321.05 Z M 697.20 329.51 L 697.09 328.98 L 696.80 328.55 L 696.37 328.25 L 695.84 328.14 L 634.95 328.04 L 634.43 328.14 L 633.99 328.44 L 633.69 328.88 L 633.58 329.40 L 633.58 329.47 L 633.69 330.00 L 633.98 330.43 L 634.41 330.72 L 634.95 330.83 L 695.83 330.94 L 696.36 330.84 L 696.80 330.54 L 697.10 330.10 L 697.20 329.58 L 697.20 329.51 Z M 795.28 353.63 L 795.20 353.21 L 794.96 352.85 L 794.60 352.61 L 794.17 352.52 L 635.18 352.52 L 634.74 352.61 L 634.39 352.85 L 634.16 353.20 L 634.07 353.63 L 634.07 353.95 L 634.16 354.39 L 634.39 354.74 L 634.74 354.97 L 635.18 355.06 L 794.17 355.06 L 794.60 354.98 L 794.96 354.74 L 795.20 354.38 L 795.28 353.95 L 795.28 353.63 Z M 635.87 365.49 L 658.15 366.02 L 680.42 366.13 L 702.68 365.81 L 726.96 365.48 L 751.20 365.49 L 799.93 365.75 L 800.47 365.62 L 800.90 365.26 L 801.13 364.74 L 801.10 364.17 L 800.87 363.36 L 800.53 362.82 L 799.93 362.65 L 635.53 361.70 L 634.64 361.98 L 634.10 362.73 L 633.87 363.99 L 634.10 364.77 L 634.71 365.26 L 635.87 365.49 Z M 781.36 373.13 L 757.50 372.73 L 733.48 372.62 L 684.90 372.58 L 660.29 372.30 L 635.13 371.63 L 634.40 371.76 L 634.03 372.14 L 633.92 372.85 L 634.05 375.01 L 634.38 375.71 L 635.10 375.99 L 785.77 375.67 L 786.44 375.46 L 786.86 374.89 L 786.88 374.17 L 786.47 373.58 L 785.24 373.03 L 783.84 372.94 L 781.36 373.13 Z M 636.85 387.16 L 718.68 386.38 L 800.46 386.23 L 801.21 385.90 L 801.54 385.15 L 801.29 384.37 L 800.59 383.96 L 798.47 383.59 L 796.37 383.32 L 715.62 383.17 L 634.85 383.59 L 634.30 383.75 L 634.00 384.23 L 633.88 385.31 L 634.04 386.04 L 634.45 386.55 L 635.41 387.01 L 636.85 387.16 Z M 672.29 394.29 L 672.16 393.66 L 671.82 393.16 L 671.31 392.82 L 670.68 392.69 L 635.25 392.75 L 634.64 392.88 L 634.12 393.22 L 633.77 393.75 L 633.65 394.36 L 633.65 394.43 L 633.78 395.06 L 634.12 395.56 L 634.63 395.90 L 635.26 396.03 L 670.68 395.97 L 671.30 395.85 L 671.82 395.50 L 672.17 394.97 L 672.29 394.36 L 672.29 394.29 Z M 727.12 436.59 L 726.85 435.93 L 726.19 435.65 L 635.37 435.33 L 634.71 435.60 L 634.44 436.26 L 634.43 437.32 L 634.71 437.98 L 635.36 438.26 L 726.18 438.58 L 726.84 438.30 L 727.11 437.65 L 727.12 436.59 Z" fill="#e1e6ff" fill-rule="nonzero" group-id="1" id="形状" node-id="7" stroke="none" target-height="250.38124" target-width="210.7196" target-x="610.9213" target-y="205.02507"></path><path d="M 430.66 243.48 L 432.75 249.31 L 434.25 254.89 L 435.22 260.23 L 435.67 265.37 L 435.65 270.34 L 435.14 275.37 L 434.18 280.23 L 432.75 284.96 L 430.86 289.57 L 428.49 294.07 L 425.77 298.30 L 422.62 302.43 L 419.01 306.47 L 414.90 310.42 L 410.28 314.30 L 408.85 315.67 L 407.54 317.33 L 406.36 319.32 L 404.86 322.50 L 403.54 325.91 L 401.21 332.35 L 383.13 288.98 L 387.52 288.42 L 391.25 287.40 L 394.43 285.96 L 397.14 284.14 L 399.42 281.92 L 401.32 279.26 L 402.85 276.11 L 403.47 273.62 L 403.42 271.45 L 402.79 269.49 L 401.65 267.74 L 400.08 266.21 L 398.00 264.89 L 397.24 264.65 L 396.46 264.68 L 392.76 265.30 L 389.70 265.42 L 387.15 265.14 L 384.69 264.46 L 382.38 263.40 L 380.18 261.96 L 377.04 259.31 L 373.47 255.76 L 372.86 255.34 L 372.12 255.21 L 371.19 255.25 L 371.21 252.96 L 371.01 251.53 L 368.46 243.47 L 365.42 235.55 L 361.90 227.75 L 357.88 220.08 L 362.54 217.91 L 367.11 216.24 L 371.62 215.03 L 376.07 214.26 L 380.50 213.92 L 386.79 214.02 L 392.62 214.67 L 398.04 215.82 L 403.10 217.46 L 407.83 219.58 L 412.27 222.19 L 416.43 225.30 L 420.35 228.94 L 424.02 233.15 L 427.46 237.98 L 430.66 243.48 Z M 385.93 250.67 L 385.75 249.39 L 385.29 248.30 L 384.55 247.35 L 383.60 246.61 L 382.51 246.15 L 381.24 245.97 L 379.96 246.15 L 378.87 246.61 L 377.92 247.35 L 377.18 248.30 L 376.72 249.39 L 376.54 250.67 L 376.72 251.94 L 377.18 253.03 L 377.92 253.98 L 378.87 254.72 L 379.96 255.18 L 381.24 255.36 L 382.51 255.18 L 383.60 254.72 L 384.55 253.98 L 385.29 253.03 L 385.75 251.94 L 385.93 250.67 L 385.93 250.67 Z" fill="#ffad56" fill-rule="nonzero" group-id="1" id="形状" node-id="8" stroke="none" target-height="118.42731" target-width="77.79349" target-x="357.881" target-y="213.92264"></path><path d="M 717.17 250.62 L 716.82 253.04 L 715.90 255.18 L 714.47 257.01 L 712.62 258.41 L 710.47 259.31 L 708.04 259.62 L 685.05 259.46 L 683.28 259.27 L 681.59 258.74 L 680.04 257.90 L 678.66 256.76 L 677.54 255.37 L 676.72 253.80 L 676.22 252.11 L 676.05 250.33 L 676.21 228.05 L 676.55 225.63 L 677.48 223.49 L 678.91 221.66 L 680.75 220.26 L 682.91 219.36 L 685.34 219.05 L 708.32 219.21 L 710.10 219.40 L 711.79 219.93 L 713.34 220.77 L 714.71 221.91 L 715.84 223.30 L 716.66 224.87 L 717.16 226.56 L 717.32 228.34 L 717.17 250.62 Z M 700.05 243.59 L 699.78 243.97 L 699.36 244.16 L 698.91 244.13 L 698.52 243.88 L 689.00 233.23 L 688.62 232.93 L 688.17 232.78 L 687.70 232.79 L 687.25 232.97 L 686.84 233.45 L 686.73 234.16 L 687.00 235.24 L 687.85 236.90 L 689.28 239.03 L 692.78 243.33 L 696.21 247.12 L 698.30 249.40 L 699.04 249.94 L 699.95 250.04 L 700.80 249.67 L 701.37 248.93 L 709.63 228.81 L 709.69 228.10 L 709.32 227.49 L 708.64 227.17 L 707.94 227.26 L 707.13 227.85 L 706.03 229.20 L 704.80 231.33 L 702.65 236.25 L 700.96 240.91 L 700.05 243.59 Z" fill="#f96982" fill-rule="nonzero" group-id="1" id="形状" node-id="9" stroke="none" target-height="40.567917" target-width="41.270325" target-x="676.05273" target-y="219.0504"></path><g node-id="126"><path d="M 751.54 219.14 L 777.48 219.05 L 778.20 219.35 L 778.50 220.06 L 778.50 221.38 L 778.21 222.10 L 777.50 222.40 L 751.55 222.49 L 750.83 222.19 L 750.54 221.48 L 750.53 220.16 L 750.82 219.44 L 751.54 219.14 Z" fill="#909afb" fill-rule="nonzero" group-id="1,2" id="矩形" node-id="10" stroke="none" target-height="3.4337769" target-width="27.971863" target-x="750.5308" target-y="219.05293"></path></g><path d="M 357.88 220.08 L 361.90 227.75 L 365.42 235.55 L 368.46 243.47 L 371.01 251.53 L 371.21 252.96 L 371.19 255.25 L 368.01 255.58 L 365.56 256.32 L 363.69 257.42 L 362.15 258.93 L 361.06 260.75 L 360.38 262.92 L 360.13 265.22 L 360.25 267.80 L 360.79 270.69 L 362.08 274.70 L 363.76 278.11 L 365.84 281.01 L 368.31 283.45 L 371.21 285.47 L 374.59 287.08 L 378.53 288.26 L 383.13 288.98 L 401.21 332.35 L 398.37 341.51 L 398.03 342.07 L 397.46 342.39 L 396.81 342.41 L 396.23 342.11 L 389.41 335.79 L 381.94 329.04 L 378.04 325.81 L 374.13 322.92 L 370.12 320.39 L 366.27 318.49 L 360.85 315.95 L 355.91 313.08 L 351.44 309.88 L 347.38 306.36 L 343.64 302.45 L 340.38 298.33 L 337.57 294.00 L 335.20 289.45 L 333.26 284.68 L 331.81 279.82 L 330.82 274.85 L 330.31 269.74 L 330.30 264.63 L 330.79 259.52 L 331.80 254.39 L 333.34 249.22 L 335.35 244.28 L 337.92 239.41 L 341.07 234.61 L 344.86 229.87 L 357.88 220.08 Z" fill="#ff9a29" fill-rule="nonzero" group-id="1" id="路径" node-id="11" stroke="none" target-height="122.32849" target-width="70.91516" target-x="330.2992" target-y="220.07867"></path><path d="M 700.05 243.59 L 700.96 240.91 L 702.65 236.25 L 704.80 231.33 L 706.03 229.20 L 707.13 227.85 L 707.94 227.26 L 708.64 227.17 L 709.32 227.49 L 709.69 228.10 L 709.63 228.81 L 701.37 248.93 L 700.80 249.67 L 699.95 250.04 L 699.04 249.94 L 698.30 249.40 L 696.21 247.12 L 692.78 243.33 L 689.28 239.03 L 687.85 236.90 L 687.00 235.24 L 686.73 234.16 L 686.84 233.45 L 687.25 232.97 L 687.70 232.79 L 688.17 232.78 L 688.62 232.93 L 689.00 233.23 L 698.52 243.88 L 698.91 244.13 L 699.36 244.16 L 699.78 243.97 L 700.05 243.59 L 700.05 243.59 Z" fill="#fdfdfd" fill-rule="nonzero" group-id="1" id="路径" node-id="12" stroke="none" target-height="22.867615" target-width="22.959229" target-x="686.72754" target-y="227.168"></path><path d="M 344.86 229.87 L 341.07 234.61 L 337.92 239.41 L 335.35 244.28 L 333.34 249.22 L 331.80 254.39 L 330.79 259.52 L 330.30 264.63 L 330.31 269.74 L 330.82 274.85 L 331.81 279.82 L 333.26 284.68 L 335.20 289.45 L 337.57 294.00 L 340.38 298.33 L 343.64 302.45 L 347.38 306.36 L 351.44 309.88 L 355.91 313.08 L 360.85 315.95 L 366.27 318.49 L 370.12 320.39 L 374.13 322.92 L 378.04 325.81 L 381.94 329.04 L 389.41 335.79 L 396.23 342.11 L 396.81 342.41 L 397.46 342.39 L 398.03 342.07 L 398.37 341.51 L 401.21 332.35 L 403.54 325.91 L 404.86 322.50 L 406.36 319.32 L 407.54 317.33 L 408.85 315.67 L 410.28 314.30 L 414.90 310.42 L 419.01 306.47 L 422.62 302.43 L 425.77 298.30 L 428.49 294.07 L 430.86 289.57 L 432.75 284.96 L 434.18 280.23 L 435.14 275.37 L 435.65 270.34 L 435.67 265.37 L 435.22 260.23 L 434.25 254.89 L 432.75 249.31 L 430.66 243.48 L 437.25 242.85 L 443.57 242.62 L 449.61 242.77 L 455.62 243.37 L 461.22 244.44 L 466.44 245.94 L 470.23 247.44 L 473.75 249.23 L 477.02 251.32 L 480.06 253.72 L 482.80 256.41 L 485.27 259.48 L 487.47 262.94 L 489.41 266.84 L 490.90 270.82 L 492.08 275.31 L 492.94 280.36 L 493.43 286.03 L 493.65 293.63 L 493.72 301.58 L 493.60 317.13 L 493.54 330.81 L 493.83 383.00 L 487.19 384.82 L 480.33 387.29 L 473.22 390.45 L 469.42 392.61 L 466.18 394.98 L 463.44 397.58 L 461.03 400.50 L 458.91 403.67 L 457.08 407.11 L 454.78 412.61 L 452.75 418.78 L 448.01 435.41 L 443.66 452.16 L 439.71 469.05 L 439.32 468.41 L 438.87 468.14 L 438.36 468.13 L 437.80 468.43 L 437.18 468.76 L 436.48 468.88 L 361.34 468.84 L 364.43 464.84 L 369.34 458.50 L 375.01 451.10 L 380.36 443.89 L 384.32 438.15 L 385.57 435.97 L 385.83 435.14 L 387.15 434.12 L 388.05 433.05 L 388.58 432.47 L 389.27 432.07 L 394.59 429.98 L 397.13 428.77 L 399.50 427.33 L 401.64 425.59 L 403.53 423.42 L 405.80 419.87 L 407.61 416.08 L 408.99 411.99 L 436.41 412.09 L 436.85 411.93 L 437.06 411.53 L 436.68 411.10 L 434.76 410.60 L 428.98 410.09 L 421.80 409.88 L 415.30 409.85 L 411.58 409.87 L 414.08 404.84 L 415.06 402.28 L 415.64 399.85 L 415.74 398.23 L 415.53 396.67 L 415.02 395.16 L 414.19 393.80 L 412.89 392.43 L 410.99 391.05 L 436.61 390.33 L 436.93 390.22 L 437.14 389.96 L 437.17 389.63 L 437.03 389.33 L 436.08 389.07 L 431.60 388.71 L 418.28 388.32 L 399.54 388.10 L 377.85 388.02 L 355.68 388.03 L 335.51 388.10 L 319.81 388.17 L 311.04 388.20 L 310.32 388.44 L 310.08 389.15 L 310.08 390.08 L 310.27 390.59 L 310.75 390.86 L 314.82 391.34 L 318.92 391.48 L 359.10 391.15 L 399.29 390.49 L 402.64 390.71 L 405.59 391.47 L 400.51 393.16 L 396.14 395.07 L 392.40 397.19 L 389.21 399.49 L 386.52 401.98 L 380.35 408.18 L 377.60 410.43 L 310.51 409.95 L 309.94 410.07 L 309.68 410.38 L 309.66 410.96 L 309.79 411.59 L 310.05 412.24 L 310.50 412.61 L 311.19 412.75 L 375.22 412.81 L 370.64 417.65 L 316.96 464.18 L 316.24 464.57 L 315.43 464.61 L 314.68 464.30 L 314.13 463.70 L 281.32 405.64 L 282.05 357.39 L 282.25 317.46 L 282.02 284.85 L 281.95 271.08 L 282.16 259.14 L 282.61 248.87 L 283.06 245.25 L 283.92 241.98 L 285.18 239.02 L 286.87 236.30 L 288.93 233.98 L 291.38 232.01 L 294.13 230.50 L 297.29 229.42 L 300.93 228.79 L 308.81 228.33 L 318.56 228.29 L 330.47 228.77 L 344.86 229.87 Z M 399.90 344.61 L 399.78 344.33 L 399.50 344.21 L 399.46 344.21 L 399.18 344.34 L 399.07 344.62 L 399.34 361.95 L 399.46 362.23 L 399.75 362.34 L 399.78 362.34 L 400.06 362.22 L 400.18 361.93 L 399.90 344.61 Z M 361.22 349.19 L 360.96 348.56 L 360.33 348.31 L 310.57 348.57 L 309.95 348.83 L 309.69 349.46 L 309.70 350.33 L 309.96 350.95 L 310.58 351.21 L 360.35 350.94 L 360.97 350.68 L 361.23 350.06 L 361.22 349.19 Z M 381.93 358.53 L 381.83 358.08 L 381.59 357.71 L 381.22 357.47 L 380.77 357.37 L 310.82 357.25 L 310.38 357.34 L 310.00 357.59 L 309.75 357.96 L 309.66 358.41 L 309.66 358.47 L 309.75 358.92 L 310.00 359.29 L 310.36 359.54 L 310.82 359.63 L 380.77 359.75 L 381.21 359.66 L 381.59 359.41 L 381.84 359.04 L 381.93 358.60 L 381.93 358.53 Z M 400.76 369.66 L 400.66 369.15 L 400.39 368.75 L 399.98 368.47 L 399.48 368.37 L 327.98 368.37 L 327.48 368.47 L 327.08 368.75 L 326.80 369.15 L 326.70 369.66 L 326.70 369.72 L 326.80 370.22 L 327.08 370.63 L 327.48 370.90 L 327.98 371.01 L 399.48 371.01 L 399.98 370.90 L 400.39 370.63 L 400.66 370.22 L 400.76 369.72 L 400.76 369.66 Z M 457.23 378.95 L 457.05 378.51 L 456.62 378.34 L 310.48 378.34 L 310.05 378.51 L 309.87 378.95 L 309.87 379.75 L 310.05 380.18 L 310.48 380.36 L 456.62 380.36 L 457.05 380.18 L 457.23 379.75 L 457.23 378.95 Z M 387.36 399.60 L 387.24 399.30 L 386.94 399.18 L 310.27 399.18 L 309.98 399.30 L 309.85 399.60 L 309.85 401.40 L 309.98 401.70 L 310.27 401.82 L 386.94 401.82 L 387.24 401.70 L 387.36 401.40 L 387.36 399.60 Z" fill="#e1e6ff" fill-rule="nonzero" group-id="1" id="形状" node-id="13" stroke="none" target-height="240.7641" target-width="212.50372" target-x="281.32437" target-y="228.28836"></path><path d="M 803.46 231.17 L 804.50 231.32 L 804.84 231.61 L 804.81 232.07 L 804.20 232.91 L 803.57 233.11 L 801.00 233.41 L 793.56 233.82 L 783.47 234.11 L 772.36 234.28 L 761.82 234.30 L 753.47 234.18 L 748.91 233.89 L 748.35 233.69 L 747.92 233.32 L 747.65 232.82 L 747.59 232.23 L 747.76 231.66 L 748.12 231.21 L 748.61 230.93 L 749.20 230.85 L 803.46 231.17 Z" fill="#cbd2ff" fill-rule="nonzero" group-id="1" id="路径" node-id="14" stroke="none" target-height="3.4549866" target-width="57.2511" target-x="747.5936" target-y="230.8477"></path><path d="M 749.50 241.60 L 783.46 241.66 L 784.16 241.95 L 784.45 242.65 L 784.45 243.92 L 784.16 244.62 L 783.45 244.91 L 749.50 244.85 L 748.80 244.56 L 748.51 243.86 L 748.51 242.59 L 748.80 241.89 L 749.50 241.60 Z" fill="#cbd2ff" fill-rule="nonzero" group-id="1,3" id="矩形" node-id="15" stroke="none" target-height="3.3060455" target-width="35.941833" target-x="748.5068" target-y="241.6032"></path><path d="M 385.93 250.67 L 385.75 251.94 L 385.29 253.03 L 384.55 253.98 L 383.60 254.72 L 382.51 255.18 L 381.24 255.36 L 379.96 255.18 L 378.87 254.72 L 377.92 253.98 L 377.18 253.03 L 376.72 251.94 L 376.54 250.67 L 376.72 249.39 L 377.18 248.30 L 377.92 247.35 L 378.87 246.61 L 379.96 246.15 L 381.24 245.97 L 382.51 246.15 L 383.60 246.61 L 384.55 247.35 L 385.29 248.30 L 385.75 249.39 L 385.93 250.67 Z" fill="#fdfdfd" fill-rule="nonzero" group-id="1" id="椭圆形" node-id="16" stroke="none" target-height="9.386749" target-width="9.386749" target-x="376.542" target-y="245.97258"></path><path d="M 748.88 251.39 L 792.47 251.55 L 793.02 251.77 L 793.24 252.32 L 793.24 253.32 L 793.01 253.86 L 792.47 254.09 L 748.87 253.93 L 748.33 253.71 L 748.10 253.16 L 748.11 252.16 L 748.34 251.62 L 748.88 251.39 Z" fill="#cbd2ff" fill-rule="nonzero" group-id="1,4" id="矩形" node-id="17" stroke="none" target-height="2.6917114" target-width="45.13672" target-x="748.10443" target-y="251.39354"></path><path d="M 371.19 255.25 L 372.12 255.21 L 372.86 255.34 L 373.47 255.76 L 377.04 259.31 L 380.18 261.96 L 382.38 263.40 L 384.69 264.46 L 387.15 265.14 L 389.70 265.42 L 392.76 265.30 L 396.46 264.68 L 397.24 264.65 L 398.00 264.89 L 400.08 266.21 L 401.65 267.74 L 402.79 269.49 L 403.42 271.45 L 403.47 273.62 L 402.85 276.11 L 401.32 279.26 L 399.42 281.92 L 397.14 284.14 L 394.43 285.96 L 391.25 287.40 L 387.52 288.42 L 383.13 288.98 L 378.53 288.26 L 374.59 287.08 L 371.21 285.47 L 368.31 283.45 L 365.84 281.01 L 363.76 278.11 L 362.08 274.70 L 360.79 270.69 L 360.25 267.80 L 360.13 265.22 L 360.38 262.92 L 361.06 260.75 L 362.15 258.93 L 363.69 257.42 L 365.56 256.32 L 368.01 255.58 L 371.19 255.25 Z" fill="#fdfdfd" fill-rule="nonzero" group-id="1" id="路径" node-id="18" stroke="none" target-height="33.76979" target-width="43.338562" target-x="360.12994" target-y="255.21468"></path><path d="M 733.67 261.70 L 801.44 261.82 L 802.07 262.08 L 802.34 262.72 L 802.31 280.01 L 802.04 280.65 L 801.40 280.91 L 733.64 280.79 L 733.00 280.53 L 732.74 279.89 L 732.77 262.60 L 733.04 261.96 L 733.67 261.70 Z" fill="#fdfdfd" fill-opacity="0" fill-rule="nonzero" group-id="1,5" id="矩形" node-id="19" stroke="none" target-height="19.213196" target-width="69.59485" target-x="732.7411" target-y="261.69733"></path><path d="M 266.75 303.39 L 263.21 304.77 L 259.67 305.70 L 256.10 306.19 L 252.48 306.25 L 248.79 305.88 L 244.36 305.35 L 241.82 305.27 L 239.36 305.42 L 237.05 305.92 L 235.27 306.79 L 234.48 307.59 L 233.75 308.77 L 233.09 310.44 L 232.39 313.14 L 231.86 316.45 L 231.31 323.48 L 231.14 330.13 L 231.05 335.03 L 230.90 335.59 L 230.58 335.86 L 230.02 335.90 L 225.26 335.28 L 224.42 335.34 L 223.68 335.72 L 223.13 336.36 L 222.88 337.16 L 222.14 344.23 L 218.17 332.96 L 214.01 322.02 L 209.69 311.41 L 209.02 310.27 L 208.16 309.40 L 207.12 308.75 L 206.02 308.34 L 204.70 307.68 L 203.73 306.65 L 203.17 305.36 L 203.10 303.88 L 203.95 299.38 L 205.23 295.49 L 206.91 292.13 L 208.96 289.24 L 211.41 286.77 L 214.27 284.69 L 217.62 282.98 L 221.50 281.65 L 226.02 280.74 L 229.13 280.51 L 232.65 280.52 L 239.95 280.49 L 243.60 280.06 L 247.12 279.08 L 249.76 277.93 L 252.43 276.59 L 257.69 273.97 L 260.33 272.95 L 262.87 272.35 L 265.60 272.17 L 268.05 272.39 L 270.26 272.98 L 272.34 273.94 L 274.12 275.18 L 275.63 276.71 L 276.86 278.48 L 277.75 280.45 L 278.32 282.66 L 278.51 284.93 L 278.29 287.35 L 277.64 289.96 L 276.31 293.19 L 274.57 296.11 L 272.42 298.78 L 269.83 301.20 L 266.75 303.39 Z" fill="#2e2b77" fill-rule="nonzero" group-id="1" id="路径" node-id="20" stroke="none" target-height="72.06015" target-width="75.408936" target-x="203.09613" target-y="272.16788"></path><path d="M 634.51 279.49 L 684.31 279.23 L 684.96 279.50 L 685.24 280.15 L 685.25 281.38 L 684.98 282.04 L 684.32 282.31 L 634.52 282.57 L 633.86 282.30 L 633.59 281.65 L 633.58 280.42 L 633.85 279.76 L 634.51 279.49 Z" fill="#5048ff" fill-rule="nonzero" group-id="1,6" id="矩形" node-id="21" stroke="none" target-height="3.3467407" target-width="51.664917" target-x="633.5817" target-y="279.22626"></path><path d="M 634.40 287.81 L 709.50 287.81 L 709.99 288.01 L 710.19 288.50 L 710.19 289.40 L 709.99 289.89 L 709.50 290.09 L 634.40 290.09 L 633.92 289.89 L 633.71 289.40 L 633.71 288.50 L 633.92 288.01 L 634.40 287.81 Z" fill="#6361ff" fill-rule="nonzero" group-id="1" id="矩形" node-id="22" stroke="none" target-height="2.2824097" target-width="76.47626" target-x="633.71313" target-y="287.8111"></path><path d="M 556.67 316.16 L 554.26 308.75 L 553.73 307.81 L 553.17 307.71 L 552.33 308.40 L 550.69 310.16 L 549.00 311.48 L 547.24 312.42 L 544.34 313.34 L 541.08 313.79 L 537.66 313.92 L 533.77 313.90 L 528.66 313.41 L 525.67 313.11 L 522.71 313.03 L 520.76 313.20 L 519.10 313.62 L 517.68 314.29 L 516.55 315.27 L 515.76 316.70 L 515.33 318.70 L 515.42 320.17 L 515.78 322.03 L 516.52 325.98 L 516.55 327.95 L 516.13 329.73 L 515.56 330.75 L 514.61 331.67 L 513.20 332.48 L 512.58 332.57 L 512.01 332.30 L 510.83 331.63 L 509.96 331.57 L 509.19 331.92 L 508.56 332.63 L 508.10 333.56 L 507.80 334.66 L 507.40 338.00 L 507.55 341.07 L 508.20 343.92 L 509.35 346.61 L 511.04 349.18 L 513.04 352.14 L 514.22 354.79 L 514.73 357.20 L 514.65 359.46 L 514.02 361.62 L 512.79 363.76 L 510.85 365.91 L 509.52 361.36 L 508.72 356.74 L 508.44 352.01 L 508.09 348.54 L 507.21 345.55 L 505.95 342.75 L 504.49 340.10 L 501.63 334.80 L 500.59 331.98 L 500.02 328.80 L 499.83 323.91 L 500.05 319.06 L 500.69 314.25 L 501.74 309.46 L 502.79 306.58 L 504.15 304.26 L 505.80 302.40 L 507.77 300.83 L 509.95 299.52 L 512.35 298.46 L 516.14 297.20 L 520.10 296.16 L 524.05 295.14 L 527.76 294.00 L 531.47 292.73 L 535.52 291.57 L 539.64 290.80 L 543.54 290.65 L 546.05 291.00 L 548.29 291.81 L 550.31 293.08 L 551.56 294.31 L 552.66 295.93 L 553.60 298.03 L 554.34 300.70 L 554.97 302.62 L 555.95 304.55 L 558.03 308.35 L 558.71 310.29 L 558.85 312.20 L 558.59 313.41 L 557.90 314.72 L 556.67 316.16 Z" fill="#2e2b77" fill-rule="nonzero" group-id="1" id="路径" node-id="23" stroke="none" target-height="75.256714" target-width="59.022278" target-x="499.82843" target-y="290.65405"></path><path d="M 634.32 299.13 L 778.92 299.13 L 779.19 299.40 L 779.19 301.20 L 778.92 301.47 L 634.32 301.47 L 634.05 301.20 L 634.05 299.40 L 634.32 299.13 Z" fill="#909afb" fill-rule="nonzero" group-id="1" id="矩形" node-id="24" stroke="none" target-height="2.3466797" target-width="145.14093" target-x="634.05066" target-y="299.12665"></path><path d="M 821.64 300.61 L 860.99 300.61 L 863.14 300.85 L 865.29 301.52 L 867.47 302.66 L 870.50 304.93 L 873.48 307.91 L 876.20 311.27 L 878.69 314.93 L 880.90 318.72 L 882.73 322.31 L 884.26 325.83 L 885.26 328.64 L 887.30 335.82 L 888.97 343.08 L 890.29 350.45 L 891.08 354.03 L 892.20 357.30 L 893.66 360.28 L 896.37 364.48 L 899.59 368.33 L 903.14 371.93 L 906.92 375.41 L 914.49 382.34 L 918.01 386.01 L 921.13 389.94 L 923.20 393.14 L 924.81 396.14 L 926.00 398.97 L 927.28 403.36 L 927.97 407.70 L 928.20 412.12 L 928.11 416.82 L 927.48 427.07 L 927.59 431.34 L 928.26 435.60 L 930.30 443.77 L 931.20 447.62 L 931.65 450.95 L 931.66 456.39 L 931.12 461.23 L 930.08 465.57 L 928.56 469.46 L 926.58 472.96 L 924.13 476.12 L 921.18 478.95 L 917.67 481.49 L 913.55 483.72 L 908.73 485.64 L 904.80 485.89 L 901.20 485.65 L 897.88 484.96 L 894.79 483.84 L 891.85 482.29 L 889.19 480.41 L 886.77 478.19 L 884.59 475.60 L 882.72 472.79 L 881.14 469.76 L 879.86 466.48 L 878.86 462.94 L 878.36 460.07 L 878.04 456.82 L 877.64 450.00 L 877.00 443.11 L 878.52 430.09 L 879.07 421.94 L 878.99 417.25 L 878.37 413.35 L 877.35 410.15 L 875.99 407.54 L 874.18 405.20 L 872.10 403.23 L 869.70 401.60 L 865.71 399.66 L 861.21 398.16 L 856.51 397.00 L 851.62 395.98 L 846.61 394.36 L 841.99 392.28 L 837.73 389.73 L 833.78 386.72 L 830.13 383.22 L 826.77 379.19 L 821.46 366.70 L 820.92 360.16 L 820.70 352.31 L 820.84 342.98 L 821.43 331.98 L 821.36 329.58 L 820.92 327.78 L 820.17 326.45 L 819.08 325.32 L 817.78 324.45 L 816.23 323.81 L 813.72 323.18 L 811.01 322.80 L 805.89 322.18 L 803.53 320.28 L 801.61 317.97 L 800.17 315.37 L 799.32 312.64 L 799.09 310.76 L 799.19 308.95 L 799.59 307.18 L 800.33 305.54 L 801.44 304.01 L 803.00 302.60 L 804.56 301.72 L 806.38 301.07 L 808.50 300.67 L 811.80 300.42 L 815.25 300.44 L 821.64 300.61 Z" fill="#313487" fill-rule="nonzero" group-id="1" id="路径" node-id="25" stroke="none" target-height="185.46652" target-width="132.56824" target-x="799.09326" target-y="300.4214"></path><path d="M 266.75 303.39 L 268.40 325.35 L 269.09 340.79 L 268.90 344.90 L 268.18 348.36 L 267.00 351.29 L 265.36 353.78 L 263.26 355.88 L 260.64 357.62 L 257.41 359.01 L 253.45 360.01 L 252.90 360.31 L 252.76 360.91 L 254.56 383.90 L 254.02 386.85 L 253.17 389.43 L 252.04 391.67 L 250.61 393.62 L 248.27 395.89 L 245.62 397.69 L 242.60 399.04 L 239.39 399.93 L 236.07 400.39 L 232.61 400.40 L 229.18 399.99 L 225.90 399.17 L 222.74 397.93 L 219.80 396.28 L 217.26 394.27 L 215.07 391.86 L 213.74 389.85 L 212.73 387.62 L 212.04 385.17 L 211.68 382.43 L 222.14 344.23 L 222.88 337.16 L 223.13 336.36 L 223.68 335.72 L 224.42 335.34 L 225.26 335.28 L 230.02 335.90 L 230.58 335.86 L 230.90 335.59 L 231.05 335.03 L 231.14 330.13 L 231.31 323.48 L 231.86 316.45 L 232.39 313.14 L 233.09 310.44 L 233.75 308.77 L 234.48 307.59 L 235.27 306.79 L 237.05 305.92 L 239.36 305.42 L 241.82 305.27 L 244.36 305.35 L 248.79 305.88 L 252.48 306.25 L 256.10 306.19 L 259.67 305.70 L 263.21 304.77 L 266.75 303.39 Z" fill="#ffa3a2" fill-rule="nonzero" group-id="1" id="路径" node-id="26" stroke="none" target-height="97.01782" target-width="57.413467" target-x="211.67921" target-y="303.38605"></path><path d="M 556.67 316.16 L 557.17 326.30 L 558.01 336.67 L 558.39 342.40 L 558.24 347.17 L 557.73 350.17 L 556.77 352.86 L 555.38 355.28 L 553.55 357.38 L 550.97 359.36 L 547.48 361.23 L 546.95 361.68 L 546.84 362.37 L 549.23 381.84 L 549.60 384.91 L 549.47 387.83 L 548.85 390.65 L 547.74 393.40 L 546.09 396.12 L 543.85 398.83 L 539.29 400.97 L 535.07 402.33 L 531.14 403.01 L 527.44 403.06 L 523.92 402.53 L 520.52 401.42 L 517.20 399.70 L 513.93 397.30 L 510.69 394.15 L 509.27 392.21 L 508.27 389.98 L 507.70 387.41 L 507.59 384.43 L 508.00 380.94 L 510.85 365.91 L 512.79 363.76 L 514.02 361.62 L 514.65 359.46 L 514.73 357.20 L 514.22 354.79 L 513.04 352.14 L 511.04 349.18 L 509.35 346.61 L 508.20 343.92 L 507.55 341.07 L 507.40 338.00 L 507.80 334.66 L 508.10 333.56 L 508.56 332.63 L 509.19 331.92 L 509.96 331.57 L 510.83 331.63 L 512.01 332.30 L 512.58 332.57 L 513.20 332.48 L 514.61 331.67 L 515.56 330.75 L 516.13 329.73 L 516.55 327.95 L 516.52 325.98 L 515.78 322.03 L 515.42 320.17 L 515.33 318.70 L 515.76 316.70 L 516.55 315.27 L 517.68 314.29 L 519.10 313.62 L 520.76 313.20 L 522.71 313.03 L 525.67 313.11 L 528.66 313.41 L 533.77 313.90 L 537.66 313.92 L 541.08 313.79 L 544.34 313.34 L 547.24 312.42 L 549.00 311.48 L 550.69 310.16 L 552.33 308.40 L 553.17 307.71 L 553.73 307.81 L 554.26 308.75 L 556.67 316.16 Z M 539.96 348.01 L 539.47 347.01 L 538.55 346.27 L 537.38 345.91 L 536.10 346.00 L 534.90 346.53 L 534.05 347.36 L 533.58 348.41 L 533.59 349.55 L 534.08 350.55 L 535.00 351.29 L 536.17 351.64 L 537.45 351.56 L 538.65 351.03 L 539.50 350.20 L 539.97 349.15 L 539.96 348.01 L 539.96 348.01 Z" fill="#ffa3a2" fill-rule="nonzero" group-id="1" id="形状" node-id="27" stroke="none" target-height="95.354126" target-width="50.989136" target-x="507.40247" target-y="307.70966"></path><path d="M 634.76 308.46 L 768.73 309.40 L 768.96 309.50 L 769.05 309.73 L 769.04 311.23 L 768.94 311.46 L 768.71 311.55 L 634.74 310.62 L 634.51 310.52 L 634.42 310.29 L 634.43 308.79 L 634.53 308.56 L 634.76 308.46 Z" fill="#909afb" fill-rule="nonzero" group-id="1,7" id="矩形" node-id="28" stroke="none" target-height="3.0890198" target-width="134.63617" target-x="634.4168" target-y="308.46368"></path><path d="M 634.68 317.93 L 653.53 318.23 L 654.07 318.46 L 654.28 319.00 L 654.26 320.53 L 654.03 321.06 L 653.49 321.28 L 634.63 320.98 L 634.09 320.75 L 633.88 320.21 L 633.90 318.68 L 634.13 318.14 L 634.68 317.93 Z" fill="#a6b1fe" fill-rule="nonzero" group-id="1,8" id="矩形" node-id="29" stroke="none" target-height="3.3497925" target-width="20.402405" target-x="633.8791" target-y="317.92902"></path><path d="M 698.16 319.67 L 788.58 319.83 L 789.11 320.05 L 789.33 320.59 L 789.33 321.61 L 789.11 322.15 L 788.57 322.37 L 698.15 322.21 L 697.62 321.99 L 697.39 321.45 L 697.40 320.43 L 697.62 319.89 L 698.16 319.67 Z" fill="#cbd2ff" fill-rule="nonzero" group-id="1,9" id="矩形" node-id="30" stroke="none" target-height="2.6973572" target-width="91.94031" target-x="697.3943" target-y="319.66965"></path><path d="M 805.89 322.18 L 811.01 322.80 L 813.72 323.18 L 816.23 323.81 L 817.78 324.45 L 819.08 325.32 L 820.17 326.45 L 820.92 327.78 L 821.36 329.58 L 821.43 331.98 L 820.84 342.98 L 820.70 352.31 L 820.92 360.16 L 821.46 366.70 L 819.13 368.14 L 815.41 368.04 L 812.52 367.52 L 810.29 366.67 L 808.30 365.40 L 806.76 363.84 L 805.60 361.96 L 804.78 359.88 L 804.20 357.51 L 803.88 354.83 L 803.78 350.69 L 803.99 346.09 L 805.89 322.18 Z" fill="#ffa3a2" fill-rule="nonzero" group-id="1" id="路径" node-id="31" stroke="none" target-height="45.96936" target-width="17.684143" target-x="803.77997" target-y="322.1756"></path><path d="M 634.44 328.04 L 696.35 328.14 L 696.96 328.39 L 697.20 329.00 L 697.20 330.09 L 696.95 330.69 L 696.35 330.94 L 634.43 330.83 L 633.83 330.58 L 633.58 329.98 L 633.59 328.89 L 633.84 328.28 L 634.44 328.04 Z" fill="#a6b1fe" fill-rule="nonzero" group-id="1,10" id="矩形" node-id="32" stroke="none" target-height="2.9047852" target-width="63.619568" target-x="633.58356" target-y="328.03653"></path><path d="M 399.31 344.22 L 399.65 344.21 L 399.90 344.46 L 400.18 362.08 L 399.93 362.34 L 399.60 362.34 L 399.34 362.10 L 399.07 344.47 L 399.31 344.22 Z" fill="#cbd2ff" fill-rule="nonzero" group-id="1,11" id="矩形" node-id="33" stroke="none" target-height="18.133606" target-width="1.1126099" target-x="399.0668" target-y="344.21045"></path><path d="M 539.96 348.01 L 539.97 349.15 L 539.50 350.20 L 538.65 351.03 L 537.45 351.56 L 536.13 351.64 L 535.00 351.29 L 534.10 350.57 L 533.59 349.55 L 533.58 348.41 L 534.05 347.36 L 534.90 346.53 L 536.10 346.00 L 537.42 345.92 L 538.55 346.27 L 539.45 346.99 L 539.96 348.01 Z" fill="#f13860" fill-rule="nonzero" group-id="1,12" id="椭圆形" node-id="34" stroke="none" target-height="5.720276" target-width="6.3974" target-x="533.57697" target-y="345.91663"></path><path d="M 310.24 348.57 L 360.67 348.31 L 361.06 348.47 L 361.22 348.85 L 361.23 350.39 L 361.07 350.78 L 360.68 350.94 L 310.25 351.21 L 309.86 351.05 L 309.70 350.66 L 309.69 349.12 L 309.85 348.73 L 310.24 348.57 Z" fill="#4640eb" fill-rule="nonzero" group-id="1,13" id="矩形" node-id="35" stroke="none" target-height="2.9000244" target-width="51.537994" target-x="309.6899" target-y="348.3072"></path><path d="M 634.76 352.52 L 794.59 352.52 L 795.08 352.72 L 795.28 353.21 L 795.28 354.37 L 795.08 354.86 L 794.59 355.06 L 634.76 355.06 L 634.27 354.86 L 634.07 354.37 L 634.07 353.21 L 634.27 352.72 L 634.76 352.52 Z" fill="#a6b1fe" fill-rule="nonzero" group-id="1" id="矩形" node-id="36" stroke="none" target-height="2.5395813" target-width="161.21417" target-x="634.0667" target-y="352.5218"></path><path d="M 310.38 357.25 L 381.21 357.37 L 381.72 357.59 L 381.93 358.09 L 381.93 359.03 L 381.71 359.54 L 381.20 359.75 L 310.38 359.63 L 309.87 359.42 L 309.66 358.91 L 309.66 357.97 L 309.87 357.46 L 310.38 357.25 Z" fill="#4640eb" fill-rule="nonzero" group-id="1,14" id="矩形" node-id="37" stroke="none" target-height="2.5024414" target-width="72.26666" target-x="309.6606" target-y="357.24982"></path><path d="M 635.87 365.49 L 634.71 365.26 L 634.10 364.77 L 633.87 363.99 L 634.10 362.73 L 634.64 361.98 L 635.53 361.70 L 799.93 362.65 L 800.53 362.82 L 800.87 363.36 L 801.10 364.17 L 801.13 364.74 L 800.90 365.26 L 800.47 365.62 L 799.93 365.75 L 751.20 365.49 L 726.96 365.48 L 702.68 365.81 L 680.42 366.13 L 658.15 366.02 L 635.87 365.49 Z" fill="#cbd2ff" fill-rule="nonzero" group-id="1" id="路径" node-id="38" stroke="none" target-height="4.429077" target-width="167.25348" target-x="633.8731" target-y="361.6996"></path><path d="M 821.46 366.70 L 826.77 379.19 L 828.86 400.63 L 819.20 405.10 L 819.13 368.14 Z" fill="#fdfdfd" fill-opacity="0" fill-rule="nonzero" group-id="1" id="路径" node-id="39" stroke="none" target-height="38.398865" target-width="9.724304" target-x="819.1335" target-y="366.69836"></path><path d="M 327.50 368.37 L 399.96 368.37 L 400.53 368.60 L 400.76 369.17 L 400.76 370.21 L 400.53 370.77 L 399.96 371.01 L 327.50 371.01 L 326.93 370.77 L 326.70 370.21 L 326.70 369.17 L 326.93 368.60 L 327.50 368.37 Z" fill="#4640eb" fill-rule="nonzero" group-id="1" id="矩形" node-id="40" stroke="none" target-height="2.6360168" target-width="74.06528" target-x="326.699" target-y="368.36996"></path><path d="M 635.13 371.63 L 660.29 372.30 L 684.90 372.58 L 733.48 372.62 L 757.50 372.73 L 781.36 373.13 L 783.84 372.94 L 785.24 373.03 L 786.47 373.58 L 786.88 374.17 L 786.86 374.89 L 786.44 375.46 L 785.77 375.67 L 635.10 375.99 L 634.38 375.71 L 634.05 375.01 L 633.92 372.85 L 634.03 372.14 L 634.40 371.76 L 635.13 371.63 Z" fill="#cbd2ff" fill-rule="nonzero" group-id="1" id="路径" node-id="41" stroke="none" target-height="4.355835" target-width="152.95367" target-x="633.92206" target-y="371.6328"></path><path d="M 310.25 378.34 L 456.85 378.34 L 457.12 378.45 L 457.23 378.72 L 457.23 379.98 L 457.12 380.25 L 456.85 380.36 L 310.25 380.36 L 309.98 380.25 L 309.87 379.98 L 309.87 378.72 L 309.98 378.45 L 310.25 378.34 Z" fill="#909afb" fill-rule="nonzero" group-id="1" id="矩形" node-id="42" stroke="none" target-height="2.025238" target-width="147.35907" target-x="309.87036" target-y="378.33536"></path><path d="M 826.77 379.19 L 830.13 383.22 L 833.78 386.72 L 837.73 389.73 L 841.99 392.28 L 846.61 394.36 L 851.62 395.98 L 843.66 396.99 L 836.08 398.55 L 828.86 400.63 L 826.77 379.19 Z" fill="#ffa3a2" fill-rule="nonzero" group-id="1" id="路径" node-id="43" stroke="none" target-height="21.44165" target-width="24.849182" target-x="826.76825" target-y="379.18723"></path><path d="M 508.00 380.94 L 507.59 384.43 L 507.70 387.41 L 508.27 389.98 L 509.27 392.21 L 510.69 394.15 L 513.93 397.30 L 517.20 399.70 L 520.52 401.42 L 523.92 402.53 L 527.44 403.06 L 531.14 403.01 L 535.07 402.33 L 539.29 400.97 L 543.85 398.83 L 544.60 400.42 L 544.79 401.15 L 544.65 401.88 L 537.29 420.32 L 530.21 438.86 L 523.43 457.53 L 522.65 460.48 L 522.63 462.36 L 523.09 463.52 L 523.95 464.23 L 525.36 464.54 L 464.45 464.57 L 462.69 464.82 L 461.18 465.45 L 459.87 466.47 L 458.85 467.78 L 458.22 469.29 L 457.97 471.05 L 457.97 500.80 L 457.95 554.87 L 452.62 551.33 L 448.04 547.58 L 444.16 543.63 L 440.91 539.46 L 438.26 535.06 L 436.17 530.39 L 434.63 525.44 L 433.65 520.15 L 433.24 514.48 L 433.44 508.37 L 434.67 497.10 L 436.72 484.06 L 439.71 469.05 L 443.66 452.16 L 448.01 435.41 L 452.75 418.78 L 454.78 412.61 L 457.08 407.11 L 458.91 403.67 L 461.03 400.50 L 463.44 397.58 L 466.18 394.98 L 469.42 392.61 L 473.22 390.45 L 480.33 387.29 L 487.19 384.82 L 493.83 383.00 L 508.00 380.94 Z" fill="#00a980" fill-rule="nonzero" group-id="1" id="路径" node-id="44" stroke="none" target-height="173.92804" target-width="111.55429" target-x="433.23795" target-y="380.9392"></path><path d="M 549.23 381.84 L 556.18 382.56 L 562.64 383.81 L 568.66 385.56 L 574.28 387.79 L 579.54 390.51 L 584.46 393.72 L 589.08 397.43 L 593.40 401.67 L 597.44 406.48 L 592.49 410.69 L 588.43 414.84 L 585.14 418.94 L 583.03 422.26 L 581.37 425.71 L 580.13 429.31 L 579.31 433.09 L 578.95 436.89 L 579.02 441.04 L 579.57 445.62 L 580.66 450.66 L 584.43 464.55 L 525.36 464.54 L 523.95 464.23 L 523.09 463.52 L 522.63 462.36 L 522.65 460.48 L 523.43 457.53 L 530.21 438.86 L 537.29 420.32 L 544.65 401.88 L 544.79 401.15 L 544.60 400.42 L 543.85 398.83 L 546.09 396.12 L 547.74 393.40 L 548.85 390.65 L 549.47 387.83 L 549.60 384.91 L 549.23 381.84 Z" fill="#007763" fill-rule="nonzero" group-id="1" id="路径" node-id="45" stroke="none" target-height="82.71268" target-width="74.80725" target-x="522.62866" target-y="381.8393"></path><path d="M 211.68 382.43 L 212.04 385.17 L 212.73 387.62 L 213.74 389.85 L 215.07 391.86 L 217.26 394.27 L 219.80 396.28 L 222.74 397.93 L 225.90 399.17 L 229.18 399.99 L 232.61 400.40 L 236.07 400.39 L 239.39 399.93 L 242.60 399.04 L 245.62 397.69 L 248.27 395.89 L 250.61 393.62 L 252.04 391.67 L 253.17 389.43 L 254.02 386.85 L 254.56 383.90 L 258.52 384.69 L 262.25 385.97 L 265.80 387.76 L 269.18 390.07 L 272.41 392.95 L 275.52 396.46 L 278.49 400.66 L 281.32 405.64 L 314.13 463.70 L 314.68 464.30 L 315.43 464.61 L 316.24 464.57 L 316.96 464.18 L 370.64 417.65 L 385.83 435.14 L 385.57 435.97 L 384.32 438.15 L 380.36 443.89 L 375.01 451.10 L 369.34 458.50 L 364.43 464.84 L 361.34 468.84 L 349.01 484.82 L 335.49 502.03 L 332.45 505.53 L 329.22 508.58 L 325.80 511.21 L 322.18 513.44 L 318.34 515.28 L 318.86 508.60 L 318.74 502.33 L 318.03 496.41 L 316.74 490.81 L 314.89 485.48 L 311.85 478.64 L 308.45 471.80 L 304.67 464.95 L 298.59 454.89 L 292.11 445.03 L 285.42 435.38 L 278.82 426.15 L 278.59 425.98 L 278.31 425.98 L 278.08 426.14 L 278.00 426.41 L 277.39 463.44 L 277.42 474.68 L 277.98 484.90 L 277.58 524.26 L 268.31 524.04 L 256.81 521.72 L 245.42 519.23 L 241.33 518.28 L 238.19 517.31 L 236.31 516.46 L 234.71 515.32 L 233.35 513.89 L 232.30 512.21 L 231.36 509.86 L 230.57 506.66 L 224.94 477.54 L 219.15 448.46 L 217.41 439.11 L 215.20 428.10 L 213.84 422.57 L 212.34 417.63 L 211.04 414.59 L 209.54 412.04 L 207.84 409.93 L 205.95 408.19 L 203.79 406.73 L 201.55 405.66 L 199.23 404.95 L 196.79 404.60 L 193.51 404.68 L 190.28 405.39 L 187.04 406.77 L 184.81 408.16 L 182.71 409.90 L 180.74 412.04 L 178.89 414.61 L 176.94 418.20 L 175.55 421.74 L 174.68 425.27 L 174.29 428.81 L 174.20 440.58 L 174.71 469.36 L 179.84 578.78 L 152.51 581.68 L 150.58 581.51 L 148.95 581.02 L 148.38 580.56 L 148.17 579.86 L 148.14 572.42 L 148.12 571.35 L 148.38 570.57 L 152.88 525.47 L 157.39 485.43 L 161.95 446.60 L 163.23 437.52 L 165.00 428.51 L 166.52 422.59 L 168.35 416.92 L 170.50 411.49 L 173.07 406.27 L 176.05 401.48 L 179.45 397.09 L 182.31 394.09 L 185.48 391.40 L 188.99 389.00 L 192.84 386.89 L 196.83 385.22 L 201.26 383.90 L 206.19 382.96 L 211.68 382.43 Z" fill="#f96982" fill-rule="nonzero" group-id="1" id="路径" node-id="46" stroke="none" target-height="199.24371" target-width="237.71356" target-x="148.11948" target-y="382.43402"></path><path d="M 800.46 386.23 L 718.68 386.38 L 636.85 387.16 L 635.41 387.01 L 634.45 386.55 L 634.04 386.04 L 633.88 385.31 L 634.00 384.23 L 634.30 383.75 L 634.85 383.59 L 715.62 383.17 L 796.37 383.32 L 798.47 383.59 L 800.59 383.96 L 801.29 384.37 L 801.54 385.15 L 801.21 385.90 L 800.46 386.23 Z" fill="#cbd2ff" fill-rule="nonzero" group-id="1" id="路径" node-id="47" stroke="none" target-height="3.9901733" target-width="167.6651" target-x="633.8763" target-y="383.16937"></path><path d="M 410.99 391.05 L 405.59 391.47 L 402.64 390.71 L 399.29 390.49 L 359.10 391.15 L 318.92 391.48 L 314.82 391.34 L 310.75 390.86 L 310.27 390.59 L 310.08 390.08 L 310.08 389.15 L 310.32 388.44 L 311.04 388.20 L 319.81 388.17 L 335.51 388.10 L 355.68 388.03 L 377.85 388.02 L 399.54 388.10 L 418.28 388.32 L 431.60 388.71 L 436.08 389.07 L 437.03 389.33 L 437.17 389.63 L 437.14 389.96 L 436.93 390.22 L 436.61 390.33 L 410.99 391.05 Z" fill="#cbd2ff" fill-rule="nonzero" group-id="1" id="路径" node-id="48" stroke="none" target-height="3.463745" target-width="127.09375" target-x="310.07928" target-y="388.01947"></path><path d="M 405.59 391.47 L 410.99 391.05 L 412.89 392.43 L 414.19 393.80 L 415.02 395.16 L 415.53 396.67 L 415.74 398.23 L 415.64 399.85 L 415.06 402.28 L 414.08 404.84 L 411.58 409.87 L 410.81 410.75 L 408.99 411.99 L 407.61 416.08 L 405.80 419.87 L 403.53 423.42 L 401.64 425.59 L 399.50 427.33 L 397.13 428.77 L 394.59 429.98 L 389.27 432.07 L 388.58 432.47 L 388.05 433.05 L 387.15 434.12 L 385.83 435.14 L 370.64 417.65 L 375.22 412.81 L 377.60 410.43 L 380.35 408.18 L 386.52 401.98 L 389.21 399.49 L 392.40 397.19 L 396.14 395.07 L 400.51 393.16 L 405.59 391.47 Z" fill="#ffa3a2" fill-rule="nonzero" group-id="1" id="路径" node-id="49" stroke="none" target-height="44.088776" target-width="45.09674" target-x="370.64313" target-y="391.04926"></path><path d="M 634.65 392.75 L 671.29 392.69 L 671.99 392.98 L 672.29 393.69 L 672.29 394.97 L 672.00 395.67 L 671.29 395.97 L 634.65 396.03 L 633.94 395.74 L 633.65 395.03 L 633.65 393.75 L 633.94 393.05 L 634.65 392.75 Z" fill="#cbd2ff" fill-rule="nonzero" group-id="1,15" id="矩形" node-id="50" stroke="none" target-height="3.342865" target-width="38.64209" target-x="633.6477" target-y="392.6889"></path><path d="M 851.62 395.98 L 856.51 397.00 L 861.21 398.16 L 865.71 399.66 L 869.70 401.60 L 872.10 403.23 L 874.18 405.20 L 875.99 407.54 L 877.35 410.15 L 878.37 413.35 L 878.99 417.25 L 879.07 421.94 L 878.52 430.09 L 877.00 443.11 L 875.28 455.67 L 874.04 468.27 L 873.27 480.90 L 872.09 508.29 L 867.87 579.83 L 864.11 651.21 L 841.25 647.06 L 834.20 643.19 L 827.54 638.89 L 821.23 634.15 L 815.26 628.96 L 799.20 609.64 L 795.81 604.35 L 792.84 598.94 L 790.29 593.42 L 788.14 587.76 L 786.39 581.97 L 786.84 534.31 L 804.17 516.28 L 822.33 497.04 L 827.36 491.50 L 831.66 486.22 L 834.23 482.59 L 836.44 478.82 L 838.32 474.91 L 839.79 470.84 L 840.88 466.34 L 841.57 461.35 L 841.95 456.20 L 842.18 450.48 L 842.08 444.68 L 841.50 438.98 L 840.77 435.25 L 839.70 431.83 L 838.31 428.67 L 836.99 426.47 L 835.40 424.53 L 833.55 422.83 L 831.40 421.35 L 830.69 421.11 L 829.95 421.19 L 827.04 422.39 L 824.57 424.01 L 822.48 426.07 L 805.23 446.42 L 790.88 462.64 L 791.76 455.41 L 792.93 449.27 L 795.09 440.86 L 797.30 434.12 L 799.94 428.00 L 802.97 422.45 L 806.41 417.42 L 810.25 412.87 L 814.50 408.77 L 819.20 405.10 L 828.86 400.63 L 836.08 398.55 L 843.66 396.99 L 851.62 395.98 Z" fill="#6361ff" fill-rule="nonzero" group-id="1" id="路径" node-id="51" stroke="none" target-height="255.22626" target-width="92.676575" target-x="786.3924" target-y="395.9837"></path><path d="M 310.11 399.18 L 387.10 399.18 L 387.36 399.44 L 387.36 401.56 L 387.10 401.82 L 310.11 401.82 L 309.85 401.56 L 309.85 399.44 L 310.11 399.18 Z" fill="#a6b1fe" fill-rule="nonzero" group-id="1" id="矩形" node-id="52" stroke="none" target-height="2.6360168" target-width="77.504944" target-x="309.8543" target-y="399.18228"></path><path d="M 752.67 447.31 L 737.24 448.37 L 736.56 448.14 L 735.70 448.08 L 734.99 447.93 L 734.48 447.45 L 731.63 442.51 L 729.47 437.56 L 727.96 432.58 L 727.07 427.52 L 727.11 424.40 L 727.13 417.44 L 727.47 414.69 L 729.69 409.39 L 731.01 407.02 L 732.49 405.29 L 734.12 404.10 L 735.98 403.34 L 737.91 403.09 L 739.97 403.35 L 741.94 404.08 L 743.94 405.33 L 746.02 407.22 L 747.21 408.87 L 748.31 411.11 L 749.28 414.06 L 750.32 418.74 L 751.12 424.31 L 751.66 430.08 L 752.07 436.03 L 752.67 447.31 Z" fill="#ffa3a2" fill-rule="nonzero" group-id="1" id="路径" node-id="53" stroke="none" target-height="45.27704" target-width="25.604614" target-x="727.0662" target-y="403.08923"></path><path d="M 268.31 524.04 L 266.15 549.35 L 256.54 549.52 L 245.94 549.13 L 234.26 548.10 L 221.42 546.38 L 215.87 545.25 L 211.00 543.76 L 206.71 541.93 L 202.97 539.78 L 199.45 537.17 L 196.31 534.20 L 193.51 530.87 L 191.05 527.15 L 188.99 523.23 L 187.13 518.91 L 185.48 514.14 L 184.07 508.90 L 181.44 496.91 L 179.34 484.86 L 177.76 472.73 L 177.37 471.01 L 176.73 469.99 L 175.87 469.46 L 174.71 469.36 L 174.20 440.58 L 174.29 428.81 L 174.68 425.27 L 175.55 421.74 L 176.94 418.20 L 178.89 414.61 L 180.74 412.04 L 182.71 409.90 L 184.81 408.16 L 187.04 406.77 L 190.28 405.39 L 193.51 404.68 L 196.79 404.60 L 199.23 404.95 L 201.55 405.66 L 203.79 406.73 L 205.95 408.19 L 207.84 409.93 L 209.54 412.04 L 211.04 414.59 L 212.34 417.63 L 213.84 422.57 L 215.20 428.10 L 217.41 439.11 L 219.15 448.46 L 224.94 477.54 L 230.57 506.66 L 231.36 509.86 L 232.30 512.21 L 233.35 513.89 L 234.71 515.32 L 236.31 516.46 L 238.19 517.31 L 241.33 518.28 L 245.42 519.23 L 256.81 521.72 L 268.31 524.04 Z" fill="#fd4670" fill-rule="nonzero" group-id="1" id="路径" node-id="54" stroke="none" target-height="144.92523" target-width="94.109314" target-x="174.19577" target-y="404.59894"></path><path d="M 597.44 406.48 L 610.92 425.27 L 626.77 454.91 L 629.99 461.43 L 632.71 468.07 L 634.95 474.82 L 636.65 481.71 L 637.74 488.65 L 638.23 495.64 L 638.15 500.89 L 637.67 506.14 L 636.76 511.41 L 635.43 516.71 L 633.44 522.48 L 631.12 527.79 L 628.48 532.67 L 625.50 537.36 L 622.27 541.89 L 618.77 546.28 L 613.22 552.72 L 607.24 559.38 L 606.10 559.46 L 605.10 559.08 L 604.17 558.19 L 605.59 555.54 L 606.35 553.25 L 606.58 551.27 L 606.60 471.56 L 606.34 469.70 L 605.64 468.05 L 604.56 466.64 L 603.15 465.55 L 601.50 464.84 L 599.64 464.58 L 584.43 464.55 L 580.66 450.66 L 579.57 445.62 L 579.02 441.04 L 578.95 436.89 L 579.31 433.09 L 580.13 429.31 L 581.37 425.71 L 583.03 422.26 L 585.14 418.94 L 588.43 414.84 L 592.49 410.69 L 597.44 406.48 Z" fill="#00a980" fill-rule="nonzero" group-id="1" id="路径" node-id="55" stroke="none" target-height="152.9802" target-width="59.276123" target-x="578.95056" target-y="406.47952"></path><path d="M 377.60 410.43 L 375.22 412.81 L 311.19 412.75 L 310.50 412.61 L 310.05 412.24 L 309.79 411.59 L 309.66 410.96 L 309.68 410.38 L 309.94 410.07 L 310.51 409.95 L 377.60 410.43 Z" fill="#a6b1fe" fill-rule="nonzero" group-id="1" id="路径" node-id="56" stroke="none" target-height="2.8610535" target-width="67.94141" target-x="309.6614" target-y="409.95132"></path><path d="M 411.58 409.87 L 415.30 409.85 L 421.80 409.88 L 428.98 410.09 L 434.76 410.60 L 436.68 411.10 L 437.06 411.53 L 436.85 411.93 L 436.41 412.09 L 408.99 411.99 L 410.81 410.75 L 411.58 409.87 Z" fill="#a6b1fe" fill-rule="nonzero" group-id="1" id="路径" node-id="57" stroke="none" target-height="2.2357483" target-width="28.063782" target-x="408.99377" target-y="409.85333"></path><path d="M 727.47 414.69 L 727.13 417.44 L 635.32 417.10 L 634.84 416.99 L 634.45 416.67 L 634.23 416.22 L 634.23 415.72 L 634.55 414.93 L 634.99 414.55 L 635.55 414.39 L 636.19 414.39 L 637.47 414.48 L 667.32 414.09 L 697.32 414.16 L 727.47 414.69 Z" fill="#cbd2ff" fill-rule="nonzero" group-id="1" id="路径" node-id="58" stroke="none" target-height="3.3483276" target-width="93.2406" target-x="634.2275" target-y="414.0931"></path><path d="M 786.84 534.31 L 781.16 539.63 L 778.24 542.12 L 775.40 544.10 L 771.44 546.11 L 767.95 547.31 L 764.86 547.84 L 761.73 547.81 L 758.92 547.25 L 756.36 546.19 L 754.01 544.68 L 751.86 542.78 L 749.90 540.46 L 748.22 537.90 L 746.74 535.07 L 745.47 531.94 L 744.01 527.07 L 743.04 521.95 L 738.67 488.79 L 734.62 454.99 L 734.11 449.56 L 734.28 448.84 L 734.96 448.56 L 737.24 448.37 L 752.67 447.31 L 754.28 455.37 L 756.80 469.61 L 759.74 483.35 L 763.09 496.60 L 763.31 496.98 L 763.70 497.17 L 764.14 497.13 L 764.48 496.86 L 771.49 487.49 L 784.99 470.61 L 790.88 462.64 L 805.23 446.42 L 822.48 426.07 L 824.57 424.01 L 827.04 422.39 L 829.95 421.19 L 830.69 421.11 L 831.40 421.35 L 833.55 422.83 L 835.40 424.53 L 836.99 426.47 L 838.31 428.67 L 839.70 431.83 L 840.77 435.25 L 841.50 438.98 L 842.08 444.68 L 842.18 450.48 L 841.95 456.20 L 841.57 461.35 L 840.88 466.34 L 839.79 470.84 L 838.32 474.91 L 836.44 478.82 L 834.23 482.59 L 831.66 486.22 L 827.36 491.50 L 822.33 497.04 L 804.17 516.28 L 786.84 534.31 Z" fill="#5048ff" fill-rule="nonzero" group-id="1" id="路径" node-id="59" stroke="none" target-height="126.73126" target-width="108.07263" target-x="734.1063" target-y="421.10602"></path><path d="M 727.11 424.40 L 727.07 427.52 L 635.55 427.54 L 634.81 427.30 L 634.48 426.60 L 634.32 425.37 L 634.45 424.73 L 635.06 424.51 L 727.11 424.40 Z" fill="#cbd2ff" fill-rule="nonzero" group-id="1" id="路径" node-id="60" stroke="none" target-height="3.1342773" target-width="92.79053" target-x="634.3239" target-y="424.40112"></path><path d="M 318.34 515.28 L 315.79 515.98 L 313.40 516.24 L 311.12 516.10 L 308.92 515.55 L 306.06 514.32 L 303.18 512.66 L 300.26 510.53 L 296.14 506.90 L 292.07 502.67 L 288.22 498.18 L 284.58 493.59 L 277.98 484.90 L 277.42 474.68 L 277.39 463.44 L 278.00 426.41 L 278.08 426.14 L 278.31 425.98 L 278.59 425.98 L 278.82 426.15 L 285.42 435.38 L 292.11 445.03 L 298.59 454.89 L 304.67 464.95 L 308.45 471.80 L 311.85 478.64 L 314.89 485.48 L 316.74 490.81 L 318.03 496.41 L 318.74 502.33 L 318.86 508.60 L 318.34 515.28 Z" fill="#f13860" fill-rule="nonzero" group-id="1" id="路径" node-id="61" stroke="none" target-height="90.26111" target-width="41.47107" target-x="277.38644" target-y="425.98035"></path><path d="M 635.02 435.33 L 726.54 435.65 L 726.95 435.82 L 727.12 436.23 L 727.11 438.00 L 726.94 438.41 L 726.53 438.58 L 635.01 438.26 L 634.60 438.09 L 634.43 437.68 L 634.44 435.91 L 634.61 435.50 L 635.02 435.33 Z" fill="#cbd2ff" fill-rule="nonzero" group-id="1,16" id="矩形" node-id="62" stroke="none" target-height="3.244751" target-width="92.683655" target-x="634.43365" target-y="435.3319"></path><path d="M 877.00 443.11 L 877.64 450.00 L 878.04 456.82 L 878.36 460.07 L 878.86 462.94 L 879.86 466.48 L 881.14 469.76 L 882.72 472.79 L 884.59 475.60 L 886.77 478.19 L 889.19 480.41 L 891.85 482.29 L 894.79 483.84 L 897.88 484.96 L 901.20 485.65 L 904.80 485.89 L 908.73 485.64 L 909.41 520.24 L 910.55 554.87 L 913.26 624.08 L 913.14 628.74 L 912.46 633.03 L 911.24 637.01 L 909.48 640.71 L 907.18 644.18 L 904.27 647.45 L 900.14 649.29 L 895.91 650.68 L 891.57 651.61 L 887.15 652.17 L 882.64 652.44 L 878.03 652.41 L 871.11 651.97 L 864.11 651.21 L 867.87 579.83 L 872.09 508.29 L 873.27 480.90 L 874.04 468.27 L 875.28 455.67 L 877.00 443.11 Z" fill="#5048ff" fill-rule="nonzero" group-id="1" id="路径" node-id="63" stroke="none" target-height="209.32764" target-width="49.151794" target-x="864.1063" target-y="443.11035"></path><path d="M 776.93 455.17 L 773.55 458.67 L 771.00 462.12 L 769.18 465.52 L 768.02 468.92 L 767.46 472.36 L 767.49 475.89 L 768.13 479.55 L 769.44 483.40 L 771.49 487.49 L 764.48 496.86 L 764.14 497.13 L 763.70 497.17 L 763.31 496.98 L 763.09 496.60 L 759.74 483.35 L 756.80 469.61 L 754.28 455.37 L 776.93 455.17 Z" fill="#fdfdfd" fill-rule="nonzero" group-id="1" id="路径" node-id="64" stroke="none" target-height="42.0065" target-width="22.647156" target-x="754.27814" target-y="455.16522"></path><path d="M 791.76 455.41 L 790.88 462.64 L 784.99 470.61 L 782.78 467.15 L 780.93 463.46 L 779.44 459.53 L 778.31 455.33 L 791.76 455.41 Z" fill="#fdfdfd" fill-rule="nonzero" group-id="1" id="路径" node-id="65" stroke="none" target-height="15.285614" target-width="13.453308" target-x="778.30756" target-y="455.32596"></path><path d="M 776.93 455.17 L 777.17 455.34 L 778.31 455.33 L 779.44 459.53 L 780.93 463.46 L 782.78 467.15 L 784.99 470.61 L 771.49 487.49 L 769.44 483.40 L 768.13 479.55 L 767.49 475.89 L 767.46 472.36 L 768.02 468.92 L 769.18 465.52 L 771.00 462.12 L 773.55 458.67 L 776.93 455.17 Z" fill="#ffa3a2" fill-rule="nonzero" group-id="1" id="路径" node-id="66" stroke="none" target-height="32.32321" target-width="17.534302" target-x="767.4597" target-y="455.16522"></path><path d="M 525.36 464.54 L 584.43 464.55 L 599.64 464.58 L 601.50 464.84 L 603.15 465.55 L 604.56 466.64 L 605.64 468.05 L 606.34 469.70 L 606.60 471.56 L 606.58 551.27 L 606.35 553.25 L 605.59 555.54 L 604.17 558.19 L 602.64 558.76 L 598.51 559.34 L 593.64 559.65 L 587.04 559.86 L 572.09 559.94 L 555.97 559.76 L 541.02 559.50 L 529.56 559.34 L 529.03 553.81 L 528.08 548.52 L 526.72 543.44 L 524.94 538.56 L 522.75 533.82 L 520.23 529.35 L 517.37 525.15 L 514.17 521.18 L 510.65 517.49 L 506.89 514.12 L 502.86 511.08 L 498.55 508.34 L 494.04 505.97 L 489.36 503.98 L 484.48 502.38 L 479.38 501.17 L 474.23 500.39 L 468.96 500.06 L 463.55 500.19 L 457.97 500.80 L 457.97 471.05 L 458.22 469.29 L 458.85 467.78 L 459.87 466.47 L 461.18 465.45 L 462.69 464.82 L 464.45 464.57 L 525.36 464.54 Z M 533.43 498.19 L 530.86 498.31 L 528.87 498.88 L 527.33 499.84 L 526.08 501.19 L 525.24 502.72 L 524.77 504.47 L 524.69 506.31 L 524.99 508.09 L 525.66 509.87 L 526.69 511.45 L 528.08 512.76 L 529.90 513.82 L 531.60 514.27 L 533.63 514.44 L 537.61 514.72 L 538.51 514.76 L 539.37 514.58 L 540.15 514.20 L 540.83 513.62 L 541.35 512.88 L 541.65 512.06 L 541.73 511.19 L 541.60 510.31 L 540.99 507.72 L 540.55 505.22 L 539.59 500.26 L 538.78 497.83 L 537.53 495.33 L 537.01 494.91 L 536.41 495.20 L 535.55 496.21 L 534.78 497.44 L 534.22 498.02 L 533.43 498.19 L 533.43 498.19 Z" fill="#e1e6ff" fill-rule="nonzero" group-id="1" id="形状" node-id="67" stroke="none" target-height="95.40448" target-width="148.62888" target-x="457.96878" target-y="464.5359"></path><path d="M 174.71 469.36 L 175.87 469.46 L 176.73 469.99 L 177.37 471.01 L 177.76 472.73 L 179.34 484.86 L 181.44 496.91 L 184.07 508.90 L 185.48 514.14 L 187.13 518.91 L 188.99 523.23 L 191.05 527.15 L 193.51 530.87 L 196.31 534.20 L 199.45 537.17 L 202.97 539.78 L 206.71 541.93 L 211.00 543.76 L 215.87 545.25 L 221.42 546.38 L 234.26 548.10 L 245.94 549.13 L 256.54 549.52 L 266.15 549.35 L 277.31 551.89 L 277.84 570.89 L 277.66 573.99 L 277.03 576.60 L 276.00 578.81 L 274.56 580.68 L 266.70 578.42 L 258.87 576.73 L 251.06 575.59 L 243.18 574.91 L 235.30 574.60 L 227.39 574.66 L 215.53 575.25 L 203.63 576.27 L 179.84 578.78 L 174.71 469.36 Z" fill="#f13860" fill-rule="nonzero" group-id="1" id="路径" node-id="68" stroke="none" target-height="111.32294" target-width="103.125626" target-x="174.71086" target-y="469.35785"></path><path d="M 534.78 497.44 L 535.55 496.21 L 536.41 495.20 L 537.01 494.91 L 537.53 495.33 L 538.78 497.83 L 539.59 500.26 L 540.55 505.22 L 540.99 507.72 L 541.60 510.31 L 541.73 511.19 L 541.65 512.06 L 541.34 512.88 L 540.83 513.62 L 540.15 514.20 L 539.37 514.58 L 538.51 514.76 L 537.61 514.72 L 533.63 514.44 L 531.60 514.27 L 529.90 513.82 L 528.08 512.76 L 526.69 511.45 L 525.66 509.87 L 524.99 508.09 L 524.69 506.31 L 524.77 504.47 L 525.24 502.72 L 526.08 501.19 L 527.33 499.84 L 528.87 498.88 L 530.86 498.31 L 533.43 498.19 L 534.22 498.02 L 534.78 497.44 L 534.78 497.44 Z" fill="#fdfdfd" fill-rule="nonzero" group-id="1" id="路径" node-id="69" stroke="none" target-height="19.854156" target-width="17.040771" target-x="524.6939" target-y="494.90616"></path><path d="M 529.56 559.34 L 460.43 559.21 L 459.87 557.29 L 459.04 555.88 L 457.95 554.87 L 457.97 500.80 L 463.55 500.19 L 468.96 500.06 L 474.23 500.39 L 479.38 501.17 L 484.48 502.38 L 489.36 503.98 L 494.04 505.97 L 498.55 508.34 L 502.86 511.08 L 506.89 514.12 L 510.65 517.49 L 514.17 521.18 L 517.37 525.15 L 520.23 529.35 L 522.75 533.82 L 524.94 538.56 L 526.72 543.44 L 528.08 548.52 L 529.03 553.81 L 529.56 559.34 Z" fill="#cbd2ff" fill-rule="nonzero" group-id="1" id="路径" node-id="70" stroke="none" target-height="59.27475" target-width="71.60611" target-x="457.95273" target-y="500.06082"></path><path d="M 117.04 501.01 L 120.28 504.32 L 122.69 507.31 L 124.41 510.02 L 125.54 512.48 L 135.54 539.18 L 145.83 565.80 L 146.03 566.55 L 146.07 567.32 L 146.15 568.46 L 146.55 569.34 L 147.26 570.04 L 148.38 570.57 L 148.12 571.35 L 148.14 572.42 L 131.27 572.98 L 129.61 560.43 L 129.28 559.50 L 128.61 558.78 L 127.70 558.40 L 126.72 558.42 L 125.66 558.90 L 124.90 559.66 L 124.38 560.77 L 124.02 562.71 L 124.04 565.09 L 124.72 569.91 L 125.48 573.72 L 91.85 574.64 L 89.97 571.56 L 87.79 569.11 L 85.30 567.23 L 82.46 565.85 L 79.21 564.97 L 75.46 564.64 L 74.84 564.52 L 74.34 564.20 L 73.98 563.72 L 73.80 563.13 L 69.99 518.40 L 69.78 515.46 L 69.74 512.48 L 70.04 509.56 L 70.84 506.86 L 71.71 505.23 L 72.96 503.75 L 74.66 502.40 L 81.24 501.35 L 88.43 500.81 L 95.74 500.66 L 103.09 500.74 L 117.04 501.01 Z" fill="#e1e6ff" fill-rule="nonzero" group-id="1" id="路径" node-id="71" stroke="none" target-height="73.974915" target-width="78.64496" target-x="69.73801" target-y="500.6624"></path><path d="M 117.04 501.01 L 121.80 500.83 L 126.13 501.20 L 130.07 502.09 L 133.69 503.48 L 137.03 505.35 L 140.13 507.75 L 143.00 510.70 L 145.62 514.07 L 148.88 518.88 L 152.88 525.47 L 148.38 570.57 L 147.26 570.04 L 146.55 569.34 L 146.15 568.46 L 146.07 567.32 L 146.03 566.55 L 145.83 565.80 L 135.54 539.18 L 125.54 512.48 L 124.41 510.02 L 122.69 507.31 L 120.28 504.32 L 117.04 501.01 Z" fill="#cbd2ff" fill-rule="nonzero" group-id="1" id="路径" node-id="72" stroke="none" target-height="69.744385" target-width="35.84323" target-x="117.04024" target-y="500.82642"></path><path d="M 958.52 502.13 L 955.17 526.15 L 951.27 550.28 L 946.82 574.52 L 943.47 574.97 L 939.14 574.88 L 933.59 574.11 L 935.02 562.66 L 934.98 561.77 L 934.63 560.98 L 934.04 560.34 L 933.24 559.93 L 932.33 559.91 L 931.54 560.32 L 930.78 561.25 L 929.94 563.05 L 929.22 565.47 L 928.35 570.32 L 927.95 573.53 L 923.06 572.76 L 922.28 572.44 L 921.76 571.76 L 921.01 569.58 L 920.67 567.29 L 920.74 564.85 L 921.26 562.21 L 926.22 544.72 L 930.35 531.16 L 933.75 520.90 L 935.34 516.76 L 937.23 512.81 L 938.71 510.31 L 940.36 508.07 L 942.18 506.08 L 944.24 504.37 L 946.54 503.04 L 949.11 502.07 L 951.81 501.58 L 954.92 501.57 L 958.52 502.13 Z" fill="#e1e6ff" fill-rule="nonzero" group-id="1" id="路径" node-id="73" stroke="none" target-height="73.398865" target-width="37.851807" target-x="920.66846" target-y="501.57074"></path><path d="M 74.66 502.40 L 72.96 503.75 L 71.71 505.23 L 70.84 506.86 L 70.04 509.56 L 69.74 512.48 L 69.78 515.46 L 69.99 518.40 L 73.80 563.13 L 73.98 563.72 L 74.34 564.20 L 74.84 564.52 L 75.46 564.64 L 79.21 564.98 L 82.46 565.85 L 85.30 567.23 L 87.79 569.11 L 89.97 571.56 L 91.85 574.64 L 93.02 578.31 L 93.79 581.86 L 94.19 585.33 L 94.28 588.83 L 94.07 592.31 L 93.58 595.81 L 92.40 601.02 L 90.74 606.38 L 90.01 608.89 L 89.62 611.14 L 89.54 613.15 L 89.82 615.10 L 90.51 616.73 L 91.61 618.11 L 93.05 619.14 L 95.09 619.91 L 97.93 620.35 L 102.38 620.96 L 106.33 622.09 L 109.85 623.72 L 113.10 625.85 L 115.94 628.36 L 118.41 631.26 L 120.48 634.48 L 122.15 637.96 L 123.45 641.73 L 124.31 645.63 L 124.77 649.66 L 124.82 653.85 L 124.44 658.67 L 123.75 663.07 L 122.78 667.09 L 121.48 671.01 L 119.93 674.73 L 118.12 678.26 L 114.99 683.35 L 111.35 688.38 L 107.37 693.30 L 102.93 698.48 L 102.70 698.95 L 102.72 699.47 L 102.99 699.91 L 103.44 700.17 L 106.53 701.04 L 109.58 702.07 L 111.51 702.94 L 113.19 704.04 L 114.65 705.35 L 115.77 706.92 L 116.53 708.94 L 116.90 711.53 L 116.74 714.24 L 116.17 716.97 L 115.17 719.76 L 113.09 723.79 L 110.35 727.87 L 107.21 731.77 L 103.76 735.58 L 96.71 742.64 L 90.50 748.79 L 88.89 750.69 L 87.29 752.84 L 84.12 757.12 L 75.56 756.83 L 66.24 756.65 L 61.73 756.88 L 57.91 757.42 L 56.92 757.39 L 56.43 756.86 L 51.29 748.62 L 45.51 740.53 L 39.34 732.65 L 32.95 724.92 L 20.28 709.76 L 16.69 705.14 L 11.84 698.25 L 9.34 694.31 L 6.96 690.18 L 4.86 685.96 L 3.26 681.98 L 2.47 679.27 L 2.06 676.86 L 1.98 674.70 L 2.30 672.61 L 3.08 670.88 L 4.32 669.40 L 5.82 668.51 L 7.81 667.93 L 9.96 667.61 L 12.22 667.45 L 16.37 667.17 L 17.22 666.81 L 17.74 666.05 L 17.78 665.14 L 17.32 664.34 L 12.24 659.11 L 7.86 653.83 L 5.32 650.11 L 3.24 646.21 L 1.60 642.12 L 0.74 638.96 L 0.21 635.58 L 0.01 631.94 L 0.19 628.02 L 0.78 624.25 L 1.60 621.52 L 2.57 619.59 L 3.92 617.93 L 5.45 616.72 L 7.19 615.92 L 10.13 615.21 L 13.65 614.84 L 21.55 614.19 L 22.30 613.95 L 22.90 613.44 L 24.75 610.74 L 26.14 607.92 L 27.10 604.97 L 27.93 600.35 L 28.16 595.48 L 27.99 590.56 L 27.61 585.58 L 27.03 575.76 L 27.04 565.47 L 27.44 558.57 L 28.26 551.74 L 29.48 544.95 L 31.18 538.29 L 33.43 531.91 L 36.23 525.78 L 38.73 521.41 L 41.61 517.28 L 44.90 513.38 L 48.62 509.70 L 51.48 507.45 L 54.58 505.60 L 57.94 504.14 L 61.58 503.07 L 65.55 502.41 L 69.89 502.18 L 74.66 502.40 Z M 55.72 699.00 L 56.85 698.88 L 57.52 698.46 L 57.88 697.75 L 57.91 696.58 L 56.76 686.91 L 55.91 677.43 L 55.34 668.15 L 54.98 654.19 L 55.19 640.14 L 55.91 625.98 L 57.14 611.17 L 57.64 605.60 L 58.30 596.88 L 58.88 586.69 L 59.12 576.75 L 59.04 572.22 L 58.80 568.75 L 58.27 565.75 L 57.65 564.38 L 57.19 563.98 L 56.65 563.75 L 56.06 563.70 L 55.47 563.84 L 54.94 564.16 L 54.56 564.62 L 54.34 565.17 L 54.29 565.78 L 54.85 575.88 L 54.78 585.94 L 54.25 596.00 L 53.42 606.04 L 51.63 626.06 L 51.00 636.05 L 50.79 646.00 L 51.08 659.12 L 51.81 672.15 L 52.97 685.10 L 54.56 697.98 L 54.96 698.70 L 55.72 699.00 Z M 70.04 735.96 L 71.59 736.25 L 72.12 736.25 L 72.40 736.01 L 72.50 735.48 L 72.53 725.52 L 73.14 715.65 L 73.91 709.12 L 75.05 702.67 L 76.55 696.30 L 78.46 690.04 L 80.86 683.89 L 83.75 677.81 L 83.91 677.27 L 83.82 676.71 L 83.51 676.23 L 83.03 675.93 L 82.10 675.90 L 81.09 676.39 L 79.91 677.65 L 78.41 680.05 L 76.80 683.47 L 75.37 687.17 L 74.06 691.08 L 72.03 698.18 L 71.04 702.45 L 69.89 710.59 L 69.19 718.69 L 68.93 726.78 L 69.11 734.87 L 69.36 735.60 L 70.04 735.96 Z M 64.35 733.67 L 63.81 731.68 L 62.42 728.72 L 60.58 725.62 L 58.12 721.99 L 55.39 718.34 L 52.37 714.60 L 49.21 710.98 L 46.10 707.68 L 42.95 704.66 L 40.21 702.36 L 37.52 700.55 L 35.63 699.77 L 34.84 699.84 L 34.27 700.39 L 34.17 701.18 L 34.60 701.86 L 40.08 706.55 L 45.18 711.52 L 49.91 716.79 L 54.29 722.35 L 58.33 728.22 L 62.02 734.42 L 62.66 734.96 L 63.49 734.98 L 64.15 734.48 L 64.35 733.67 L 64.35 733.67 Z M 108.31 718.46 L 106.88 719.17 L 104.34 720.87 L 101.61 722.96 L 98.36 725.68 L 95.10 728.63 L 91.86 731.80 L 88.80 735.07 L 86.27 738.13 L 84.19 741.19 L 83.08 743.58 L 82.78 745.12 L 83.02 746.22 L 83.72 747.05 L 84.41 747.26 L 84.97 746.80 L 89.02 740.71 L 93.46 735.02 L 98.29 729.70 L 103.53 724.74 L 109.20 720.13 L 109.53 719.58 L 109.44 718.93 L 108.96 718.50 L 108.31 718.46 Z" fill="#00a980" fill-rule="nonzero" group-id="1" id="形状" node-id="74" stroke="none" target-height="255.24652" target-width="124.806694" target-x="0.0129706785" target-y="502.17517"></path><path d="M 958.52 502.13 L 961.89 501.72 L 964.63 501.84 L 966.84 502.39 L 968.65 503.33 L 970.12 504.65 L 971.30 506.41 L 971.92 508.07 L 972.31 510.37 L 972.38 513.50 L 972.01 517.66 L 968.49 543.02 L 964.74 568.22 L 964.21 570.26 L 963.41 571.82 L 962.39 572.98 L 961.11 573.90 L 959.65 574.57 L 957.97 575.00 L 955.32 575.27 L 952.45 575.21 L 946.82 574.52 L 951.27 550.28 L 955.17 526.15 L 958.52 502.13 Z" fill="#cbd2ff" fill-rule="nonzero" group-id="1" id="路径" node-id="75" stroke="none" target-height="73.555145" target-width="25.556519" target-x="946.819" target-y="501.71817"></path><path d="M 277.31 551.89 L 266.15 549.35 L 268.31 524.04 L 277.58 524.26 L 284.45 524.18 L 291.49 523.68 L 298.73 522.74 L 306.17 521.35 L 309.14 521.04 L 311.90 521.28 L 314.53 522.07 L 316.98 523.33 L 319.16 524.96 L 321.09 526.99 L 322.68 529.30 L 323.87 531.81 L 324.66 534.53 L 324.79 536.66 L 324.45 538.68 L 323.76 540.64 L 322.86 542.60 L 321.03 546.51 L 319.96 548.58 L 318.65 550.31 L 317.11 551.73 L 315.31 552.87 L 312.66 554.00 L 309.69 554.79 L 306.35 555.22 L 301.23 555.32 L 295.87 554.93 L 290.54 554.21 L 285.61 553.36 L 277.31 551.89 Z" fill="#ffa3a2" fill-rule="nonzero" group-id="1" id="路径" node-id="76" stroke="none" target-height="34.28253" target-width="58.642975" target-x="266.15128" target-y="521.03796"></path><path d="M 703.07 559.45 L 676.15 559.43 L 672.45 523.07 L 672.53 522.25 L 672.94 521.80 L 673.75 521.63 L 705.62 521.63 L 706.23 521.75 L 706.56 522.08 L 706.69 522.67 L 706.69 525.10 L 706.81 525.69 L 707.14 526.00 L 707.75 526.08 L 710.45 525.87 L 712.18 526.00 L 714.06 526.57 L 715.72 527.43 L 717.20 528.57 L 718.76 530.34 L 719.77 532.11 L 720.31 533.90 L 720.45 535.78 L 720.24 537.60 L 719.64 539.42 L 718.74 541.11 L 717.57 542.66 L 716.10 544.09 L 714.44 545.27 L 712.61 546.20 L 710.58 546.86 L 708.20 547.04 L 706.78 547.16 L 705.43 547.47 L 704.85 547.90 L 704.56 548.53 L 703.07 559.45 Z M 706.27 528.94 L 705.24 543.37 L 705.34 544.13 L 705.70 544.75 L 706.26 545.20 L 706.99 545.40 L 708.32 545.50 L 710.83 545.35 L 713.08 544.61 L 715.05 543.34 L 716.62 541.64 L 717.41 540.30 L 717.94 538.84 L 718.21 537.22 L 718.24 536.90 L 718.19 535.13 L 717.78 533.42 L 717.05 531.83 L 715.99 530.37 L 714.65 529.15 L 713.12 528.22 L 711.43 527.59 L 709.63 527.29 L 708.29 527.19 L 707.54 527.29 L 706.92 527.65 L 706.47 528.21 L 706.27 528.94 L 706.27 528.94 Z" fill="#fd4670" fill-rule="nonzero" group-id="1" id="形状" node-id="77" stroke="none" target-height="37.82019" target-width="48.004456" target-x="672.4495" target-y="521.6279"></path><path d="M 429.62 559.42 L 404.19 559.43 L 403.24 548.15 L 402.90 547.52 L 402.21 547.33 L 399.52 547.48 L 397.22 547.28 L 395.26 546.77 L 393.57 545.99 L 391.54 544.50 L 390.00 542.75 L 388.91 540.71 L 388.26 538.48 L 388.08 536.24 L 388.36 533.97 L 389.11 531.82 L 390.33 529.92 L 392.07 528.23 L 393.59 527.28 L 395.40 526.57 L 397.57 526.12 L 400.19 525.98 L 400.88 525.77 L 401.09 525.05 L 400.97 523.12 L 401.09 522.39 L 401.48 521.99 L 402.21 521.85 L 416.59 521.95 L 431.00 521.61 L 432.38 521.77 L 433.21 522.28 L 433.66 523.14 L 433.71 524.54 L 429.62 559.42 Z M 402.81 542.51 L 402.03 530.15 L 401.78 529.19 L 401.20 528.45 L 400.39 527.97 L 399.41 527.83 L 397.36 527.96 L 395.90 528.20 L 394.53 528.72 L 393.29 529.50 L 392.21 530.52 L 391.35 531.74 L 390.75 533.09 L 390.41 534.53 L 390.36 536.03 L 390.49 538.14 L 390.73 539.62 L 391.24 541.00 L 392.01 542.27 L 393.02 543.37 L 394.22 544.24 L 395.55 544.86 L 396.97 545.20 L 398.45 545.26 L 400.49 545.13 L 401.45 544.87 L 402.19 544.30 L 402.67 543.49 L 402.81 542.51 Z" fill="#6361ff" fill-rule="nonzero" group-id="1" id="形状" node-id="78" stroke="none" target-height="37.82019" target-width="45.634583" target-x="388.07977" target-y="521.6118"></path><path d="M 706.27 528.94 L 706.47 528.21 L 706.92 527.65 L 707.54 527.29 L 708.29 527.19 L 709.63 527.29 L 711.43 527.59 L 713.12 528.22 L 714.65 529.15 L 715.99 530.37 L 717.05 531.83 L 717.78 533.42 L 718.19 535.13 L 718.24 536.90 L 718.21 537.22 L 717.94 538.84 L 717.41 540.30 L 716.62 541.64 L 715.05 543.34 L 713.08 544.61 L 710.83 545.35 L 708.32 545.50 L 706.99 545.40 L 706.26 545.20 L 705.70 544.75 L 705.34 544.13 L 705.24 543.37 L 706.27 528.94 Z" fill="#fdfdfd" fill-opacity="0" fill-rule="nonzero" group-id="1" id="路径" node-id="79" stroke="none" target-height="18.307373" target-width="13.003235" target-x="705.23883" target-y="527.1892"></path><path d="M 402.81 542.51 L 402.67 543.49 L 402.19 544.30 L 401.45 544.87 L 400.49 545.13 L 398.45 545.26 L 396.97 545.20 L 395.55 544.86 L 394.22 544.24 L 393.02 543.37 L 392.01 542.27 L 391.24 541.00 L 390.73 539.62 L 390.49 538.14 L 390.36 536.03 L 390.41 534.53 L 390.75 533.09 L 391.35 531.74 L 392.21 530.52 L 393.29 529.50 L 394.53 528.72 L 395.90 528.20 L 397.36 527.96 L 399.41 527.83 L 400.39 527.97 L 401.20 528.45 L 401.78 529.19 L 402.03 530.15 L 402.81 542.51 Z" fill="#fdfdfd" fill-opacity="0" fill-rule="nonzero" group-id="1" id="路径" node-id="80" stroke="none" target-height="17.42334" target-width="12.440643" target-x="390.36493" target-y="527.83215"></path><path d="M 131.27 572.98 L 139.70 639.77 L 140.59 644.45 L 141.96 648.61 L 143.79 652.30 L 146.07 655.58 L 148.40 657.64 L 150.75 659.17 L 153.15 660.23 L 155.61 660.86 L 158.19 661.06 L 190.63 661.05 L 224.41 661.21 L 261.09 660.85 L 261.65 660.66 L 261.57 660.07 L 259.61 656.90 L 257.40 654.32 L 254.93 652.27 L 252.16 650.61 L 249.18 649.32 L 245.98 648.39 L 241.00 647.58 L 235.74 647.34 L 227.10 647.21 L 218.17 646.81 L 208.93 646.13 L 201.95 644.07 L 195.13 642.05 L 189.04 639.77 L 183.62 637.25 L 178.82 634.51 L 174.57 631.55 L 170.52 628.12 L 166.93 624.37 L 163.77 620.29 L 161.02 615.86 L 158.67 611.06 L 156.82 606.18 L 155.25 600.84 L 154.00 595.01 L 153.07 588.64 L 152.51 581.68 L 179.84 578.78 L 203.63 576.27 L 215.53 575.25 L 227.39 574.66 L 235.30 574.60 L 243.18 574.91 L 251.06 575.59 L 258.87 576.73 L 266.70 578.42 L 274.56 580.68 L 275.50 581.55 L 275.95 581.99 L 276.70 582.48 L 284.46 586.66 L 291.81 591.21 L 298.78 596.14 L 305.39 601.44 L 311.71 607.11 L 317.77 613.05 L 323.56 619.27 L 329.10 625.79 L 336.11 634.78 L 342.82 644.08 L 349.22 653.68 L 358.37 668.39 L 367.14 683.28 L 367.62 683.79 L 368.31 683.98 L 369.27 684.14 L 370.00 684.55 L 370.56 685.20 L 352.16 729.67 L 333.30 773.92 L 313.97 817.95 L 313.53 818.48 L 312.88 818.66 L 286.98 818.76 L 286.02 818.56 L 285.57 818.03 L 285.52 817.05 L 286.33 811.20 L 286.42 808.32 L 286.15 805.27 L 283.94 793.22 L 281.32 781.24 L 281.07 780.66 L 280.83 780.62 L 280.42 781.11 L 260.08 817.95 L 259.65 818.41 L 259.05 818.56 L 231.67 818.63 L 230.78 818.44 L 230.38 817.95 L 230.37 817.05 L 240.29 767.06 L 250.58 716.35 L 250.98 713.49 L 251.00 710.65 L 250.64 707.82 L 246.42 687.40 L 241.64 667.11 L 241.27 666.49 L 240.58 666.29 L 162.50 666.29 L 161.93 666.38 L 161.45 666.64 L 161.07 667.04 L 160.84 667.56 L 120.09 818.07 L 119.62 818.82 L 118.76 819.03 L 114.92 818.81 L 114.37 818.51 L 114.24 817.89 L 155.12 667.01 L 155.09 666.40 L 154.57 666.08 L 150.80 664.94 L 147.63 663.58 L 144.97 662.02 L 142.77 660.28 L 140.79 658.22 L 139.09 655.91 L 137.64 653.35 L 136.45 650.49 L 135.25 646.54 L 134.24 642.04 L 133.47 636.92 L 129.40 605.36 L 125.48 573.72 L 124.72 569.91 L 124.04 565.09 L 124.02 562.71 L 124.38 560.77 L 124.90 559.66 L 125.66 558.90 L 126.72 558.42 L 127.70 558.40 L 128.61 558.78 L 129.28 559.50 L 129.61 560.43 L 131.27 572.98 Z M 254.08 694.22 L 254.27 694.53 L 254.61 694.65 L 254.95 694.52 L 255.13 694.21 L 260.81 666.91 L 260.71 666.46 L 260.28 666.27 L 248.26 666.29 L 247.85 666.49 L 247.75 666.93 L 254.08 694.22 Z M 294.46 752.97 L 285.57 769.81 L 285.25 770.77 L 285.29 771.77 L 289.26 790.03 L 289.51 790.76 L 289.64 790.76 L 289.83 790.02 L 295.20 753.23 L 295.15 752.94 L 294.93 752.76 L 294.65 752.77 L 294.46 752.97 L 294.46 752.97 Z" fill="#2e2b77" fill-rule="nonzero" group-id="1" id="形状" node-id="81" stroke="none" target-height="260.62866" target-width="256.31924" target-x="114.24351" target-y="558.40155"></path><path d="M 604.17 558.19 L 605.10 559.08 L 606.10 559.46 L 607.24 559.38 L 676.15 559.43 L 703.07 559.45 L 739.23 559.30 L 740.64 559.57 L 741.70 560.23 L 742.48 561.32 L 743.18 563.40 L 743.47 566.05 L 743.42 568.80 L 743.16 571.40 L 742.48 575.30 L 742.19 576.02 L 741.69 576.58 L 741.03 576.95 L 740.26 577.08 L 320.94 577.10 L 319.37 576.78 L 318.05 575.89 L 317.17 574.55 L 316.88 572.98 L 317.02 561.62 L 317.21 560.75 L 317.69 560.06 L 318.40 559.59 L 319.27 559.42 L 404.19 559.43 L 429.62 559.42 L 460.43 559.21 L 529.56 559.34 L 541.02 559.50 L 555.97 559.76 L 572.09 559.94 L 587.04 559.86 L 593.64 559.65 L 598.51 559.34 L 602.64 558.76 L 604.17 558.19 Z" fill="#5a4fa6" fill-rule="nonzero" group-id="1" id="路径" node-id="82" stroke="none" target-height="18.9021" target-width="426.59518" target-x="316.87778" target-y="558.1944"></path><path d="M 933.59 574.11 L 928.62 605.63 L 924.08 636.95 L 923.21 641.69 L 921.93 646.14 L 920.25 650.31 L 918.66 653.30 L 916.81 656.01 L 914.70 658.47 L 912.31 660.69 L 909.70 662.59 L 906.76 664.16 L 903.46 665.41 L 899.74 666.32 L 899.07 666.59 L 898.77 667.05 L 898.81 667.78 L 938.85 817.92 L 938.88 818.54 L 938.63 818.87 L 938.03 819.00 L 934.20 818.95 L 933.51 818.74 L 933.12 818.11 L 892.68 666.95 L 892.33 666.37 L 891.69 666.17 L 805.58 666.30 L 805.28 666.41 L 805.12 666.69 L 785.85 763.79 L 777.44 803.07 L 774.19 818.61 L 773.87 819.18 L 773.24 819.32 L 769.11 818.95 L 768.60 818.67 L 768.47 818.10 L 772.57 797.27 L 782.29 749.48 L 798.98 666.91 L 798.89 666.38 L 798.38 666.21 L 783.34 666.32 L 782.62 666.58 L 782.21 667.20 L 770.25 715.26 L 755.29 776.74 L 744.83 818.24 L 744.50 818.80 L 743.88 818.98 L 739.73 818.98 L 739.18 818.86 L 738.94 818.56 L 738.96 817.99 L 750.71 770.06 L 765.90 708.21 L 775.98 666.75 L 775.91 666.09 L 775.29 665.84 L 761.95 665.16 L 764.06 663.64 L 766.78 662.41 L 770.22 661.51 L 816.58 661.38 L 856.48 661.63 L 883.18 661.48 L 899.97 661.06 L 902.11 660.70 L 904.42 659.72 L 906.96 657.99 L 910.53 654.71 L 913.10 651.62 L 915.13 648.33 L 916.58 644.97 L 917.64 641.44 L 918.43 637.58 L 919.69 628.96 L 923.63 601.53 L 927.95 573.53 L 928.35 570.32 L 929.22 565.47 L 929.94 563.05 L 930.78 561.25 L 931.54 560.32 L 932.33 559.91 L 933.24 559.93 L 934.04 560.34 L 934.63 560.98 L 934.98 561.77 L 935.02 562.66 L 933.59 574.11 Z" fill="#2e2b77" fill-rule="nonzero" group-id="1" id="路径" node-id="83" stroke="none" target-height="259.4052" target-width="199.93463" target-x="738.9442" target-y="559.9143"></path><path d="M 55.72 699.00 L 54.96 698.70 L 54.56 697.98 L 52.97 685.10 L 51.81 672.15 L 51.08 659.12 L 50.79 646.00 L 51.00 636.05 L 51.63 626.06 L 53.42 606.04 L 54.25 596.00 L 54.78 585.94 L 54.85 575.88 L 54.29 565.78 L 54.34 565.17 L 54.56 564.62 L 54.94 564.16 L 55.47 563.84 L 56.06 563.70 L 56.65 563.75 L 57.19 563.98 L 57.65 564.38 L 58.27 565.75 L 58.80 568.75 L 59.04 572.22 L 59.12 576.75 L 58.88 586.69 L 58.30 596.88 L 57.64 605.60 L 57.14 611.17 L 55.91 625.98 L 55.19 640.14 L 54.98 654.19 L 55.34 668.15 L 55.91 677.43 L 56.76 686.91 L 57.91 696.58 L 57.88 697.75 L 57.52 698.46 L 56.85 698.88 L 55.72 699.00 Z" fill="#8edec6" fill-rule="nonzero" group-id="1" id="路径" node-id="84" stroke="none" target-height="135.2987" target-width="8.337219" target-x="50.78653" target-y="563.698"></path><path d="M 277.84 570.89 L 282.22 572.09 L 284.78 573.03 L 300.17 580.24 L 318.05 589.14 L 338.69 599.94 L 345.07 603.48 L 350.98 607.15 L 356.45 610.95 L 361.62 615.12 L 366.16 619.56 L 370.12 624.26 L 372.70 628.05 L 374.88 632.10 L 376.65 636.44 L 378.03 641.08 L 378.89 645.75 L 379.29 650.87 L 379.18 656.48 L 378.50 662.64 L 377.52 666.81 L 375.10 673.94 L 370.56 685.20 L 370.00 684.55 L 369.27 684.14 L 368.31 683.98 L 367.62 683.79 L 367.14 683.28 L 358.37 668.39 L 349.22 653.68 L 342.82 644.08 L 336.11 634.78 L 329.10 625.79 L 323.56 619.27 L 317.77 613.05 L 311.71 607.10 L 305.39 601.44 L 298.78 596.14 L 291.81 591.21 L 284.46 586.66 L 276.70 582.48 L 275.95 581.99 L 275.50 581.55 L 274.56 580.68 L 276.00 578.81 L 277.03 576.60 L 277.66 573.99 L 277.84 570.89 Z" fill="#313487" fill-rule="nonzero" group-id="1" id="路径" node-id="85" stroke="none" target-height="114.31262" target-width="104.73312" target-x="274.55756" target-y="570.8922"></path><path d="M 148.14 572.42 L 148.17 579.86 L 148.38 580.56 L 148.95 581.02 L 150.58 581.51 L 152.51 581.68 L 153.07 588.64 L 154.00 595.01 L 155.25 600.84 L 156.82 606.18 L 158.67 611.06 L 161.02 615.86 L 163.77 620.29 L 166.93 624.37 L 170.52 628.12 L 174.57 631.55 L 178.82 634.51 L 183.62 637.25 L 189.04 639.77 L 195.13 642.05 L 201.95 644.07 L 203.00 645.18 L 203.34 645.70 L 203.24 645.94 L 202.63 646.05 L 180.49 645.95 L 158.33 646.24 L 156.29 646.46 L 154.55 646.93 L 153.05 647.63 L 151.02 649.11 L 149.23 651.00 L 147.64 653.16 L 146.07 655.58 L 143.79 652.30 L 141.96 648.61 L 140.59 644.45 L 139.70 639.77 L 131.27 572.98 L 148.14 572.42 Z" fill="#fdfdfd" fill-opacity="0.01" fill-rule="nonzero" group-id="1" id="路径" node-id="86" stroke="none" target-height="83.16272" target-width="72.07973" target-x="131.26501" target-y="572.4192"></path><path d="M 786.39 581.97 L 788.14 587.76 L 790.29 593.42 L 792.84 598.94 L 795.81 604.35 L 799.20 609.64 L 799.42 615.77 L 800.12 621.69 L 801.29 627.42 L 802.92 632.99 L 805.02 638.41 L 807.61 643.70 L 808.02 644.28 L 808.59 644.72 L 811.69 646.50 L 808.67 646.47 L 799.04 646.44 L 794.30 646.49 L 789.72 646.82 L 786.72 647.29 L 783.82 648.03 L 781.01 649.07 L 778.35 650.43 L 775.76 652.26 L 773.21 654.62 L 756.64 660.48 L 754.94 660.60 L 754.29 660.85 L 753.97 661.46 L 753.18 666.89 L 752.88 672.00 L 753.05 676.82 L 753.67 681.39 L 754.71 685.74 L 752.83 686.07 L 752.20 686.40 L 751.87 687.02 L 739.88 756.57 L 740.55 759.63 L 740.70 759.92 L 740.74 759.64 L 740.60 758.20 L 740.28 756.88 L 740.13 756.74 L 739.94 757.28 L 736.39 777.51 L 732.47 797.42 L 728.19 817.00 L 727.85 817.82 L 727.27 818.44 L 726.52 818.85 L 725.64 818.98 L 703.07 818.45 L 702.60 818.29 L 702.43 817.82 L 700.31 783.74 L 698.35 749.54 L 697.70 732.46 L 697.44 715.45 L 697.26 711.20 L 696.73 707.36 L 695.91 703.89 L 694.79 700.76 L 695.74 698.11 L 696.21 696.03 L 696.32 694.40 L 695.94 677.49 L 695.95 653.04 L 696.25 647.61 L 697.05 642.21 L 698.38 636.85 L 700.23 631.48 L 702.64 626.10 L 705.63 620.68 L 709.26 615.21 L 727.70 606.14 L 749.33 596.23 L 774.50 585.42 L 779.00 583.73 L 782.94 582.60 L 786.39 581.97 Z" fill="#7375ae" fill-rule="nonzero" group-id="1" id="路径" node-id="87" stroke="none" target-height="237.01593" target-width="116.90033" target-x="694.79126" target-y="581.9667"></path><path d="M 406.75 598.43 L 411.43 599.26 L 412.07 599.66 L 412.23 600.40 L 373.28 819.02 L 372.88 819.66 L 372.15 819.82 L 367.46 818.98 L 366.83 818.58 L 366.67 817.85 L 405.61 599.22 L 406.02 598.59 L 406.75 598.43 Z" fill="#e1e6ff" fill-rule="nonzero" group-id="1,17" id="矩形" node-id="88" stroke="none" target-height="221.39099" target-width="45.55786" target-x="366.66986" target-y="598.4262"></path><path d="M 647.70 818.71 L 607.77 600.13 L 607.79 599.70 L 607.99 599.32 L 608.33 599.06 L 608.75 598.97 L 629.89 599.26 L 630.51 599.49 L 630.84 600.07 L 672.19 818.31 L 672.18 818.73 L 671.99 819.11 L 671.65 819.37 L 671.24 819.46 L 648.66 819.51 L 648.03 819.29 L 647.70 818.71 Z" fill="#e1e6ff" fill-rule="nonzero" group-id="1" id="路径" node-id="89" stroke="none" target-height="220.54047" target-width="64.421326" target-x="607.771" target-y="598.972"></path><path d="M 454.55 599.58 L 452.10 615.14 L 450.47 617.31 L 449.41 619.48 L 448.70 621.76 L 448.22 624.17 L 447.41 629.33 L 429.69 723.83 L 411.37 818.16 L 411.06 818.94 L 410.52 819.38 L 409.70 819.53 L 387.50 819.32 L 386.89 819.02 L 386.72 818.37 L 429.54 600.24 L 429.93 599.51 L 430.72 599.28 L 454.55 599.58 Z" fill="#e1e6ff" fill-rule="nonzero" group-id="1" id="路径" node-id="90" stroke="none" target-height="220.25146" target-width="67.82889" target-x="386.7163" target-y="599.2772"></path><path d="M 581.56 627.23 L 576.59 629.66 L 576.03 630.14 L 575.88 630.86 L 576.59 644.20 L 575.55 657.55 L 573.85 673.42 L 571.38 692.10 L 565.16 734.58 L 559.74 769.52 L 555.03 797.88 L 555.02 798.65 L 555.24 799.39 L 555.97 800.92 L 552.91 805.06 L 552.31 805.58 L 551.55 805.75 L 527.20 806.06 L 523.02 776.81 L 522.42 773.87 L 521.48 771.05 L 520.20 768.34 L 503.01 736.46 L 486.12 704.49 L 469.53 672.41 L 469.23 672.24 L 468.98 672.47 L 435.84 818.69 L 435.52 819.17 L 434.95 819.32 L 430.53 818.85 L 430.06 818.64 L 430.00 818.11 L 464.62 665.26 L 464.82 663.53 L 464.66 661.86 L 464.12 660.21 L 456.67 643.32 L 453.37 627.92 L 452.10 615.14 L 454.55 599.58 L 599.75 599.71 L 600.27 599.82 L 600.48 600.10 L 600.43 600.63 L 598.57 605.60 L 596.22 610.33 L 593.37 614.85 L 590.00 619.16 L 586.08 623.28 L 581.56 627.23 Z" fill="#2e2b77" fill-rule="nonzero" group-id="1" id="路径" node-id="91" stroke="none" target-height="219.73663" target-width="170.47372" target-x="430.00143" target-y="599.5829"></path><path d="M 691.85 817.57 L 691.84 818.15 L 691.61 818.68 L 691.19 819.08 L 690.64 819.29 L 688.22 819.71 L 687.00 819.72 L 685.98 819.38 L 685.20 818.73 L 684.81 817.86 L 647.13 602.01 L 647.20 601.08 L 647.72 600.18 L 648.59 599.50 L 649.72 599.12 L 652.13 598.68 L 652.71 598.69 L 653.24 598.93 L 653.64 599.35 L 653.85 599.89 L 691.85 817.57 Z" fill="#e1e6ff" fill-rule="nonzero" group-id="1" id="路径" node-id="92" stroke="none" target-height="221.0362" target-width="44.715637" target-x="647.1342" target-y="598.6828"></path><path d="M 799.20 609.64 L 815.26 628.96 L 819.66 634.84 L 824.74 640.67 L 830.55 646.47 L 811.69 646.50 L 808.59 644.72 L 808.02 644.28 L 807.61 643.70 L 805.02 638.41 L 802.92 632.99 L 801.29 627.42 L 800.12 621.69 L 799.42 615.77 L 799.20 609.64 Z" fill="#5a4fa6" fill-rule="nonzero" group-id="1" id="路径" node-id="93" stroke="none" target-height="36.855835" target-width="31.342712" target-x="799.20276" target-y="609.6447"></path><path d="M 709.26 615.21 L 705.63 620.68 L 702.64 626.10 L 700.23 631.48 L 698.38 636.85 L 697.05 642.21 L 696.25 647.61 L 695.95 653.04 L 695.94 677.49 L 696.32 694.40 L 696.21 696.03 L 695.74 698.11 L 694.79 700.76 L 690.37 695.02 L 686.05 688.65 L 682.14 681.96 L 678.77 675.01 L 676.88 670.23 L 675.41 665.48 L 674.34 660.75 L 673.71 655.96 L 673.65 651.31 L 674.12 646.78 L 674.86 643.46 L 675.99 640.23 L 677.53 637.09 L 679.48 634.00 L 681.74 631.22 L 684.50 628.52 L 687.84 625.89 L 691.82 623.34 L 696.83 620.81 L 709.26 615.21 Z" fill="#5a4fa6" fill-rule="nonzero" group-id="1" id="路径" node-id="94" stroke="none" target-height="85.55762" target-width="35.61139" target-x="673.64575" target-y="615.20605"></path><path d="M 581.56 627.23 L 593.31 627.85 L 598.24 628.35 L 599.57 628.76 L 600.76 629.45 L 601.85 630.47 L 603.16 632.33 L 604.14 634.56 L 604.71 636.94 L 604.84 639.29 L 604.50 641.52 L 603.69 643.32 L 603.10 643.85 L 602.32 644.06 L 590.07 644.22 L 587.11 644.11 L 585.32 644.39 L 584.30 644.91 L 576.59 644.20 L 575.88 630.86 L 576.03 630.14 L 576.59 629.66 L 581.56 627.23 Z" fill="#909afb" fill-rule="nonzero" group-id="1" id="路径" node-id="95" stroke="none" target-height="17.680542" target-width="28.960083" target-x="575.8818" target-y="627.22876"></path><path d="M 453.37 627.92 L 456.67 643.32 L 454.17 643.71 L 451.80 643.55 L 449.51 642.87 L 448.93 642.42 L 448.73 641.71 L 448.83 638.67 L 449.35 635.80 L 450.27 633.07 L 451.60 630.45 L 453.37 627.92 Z" fill="#cbd2ff" fill-rule="nonzero" group-id="1" id="路径" node-id="96" stroke="none" target-height="15.7854" target-width="7.940155" target-x="448.7267" target-y="627.9199"></path><path d="M 815.26 628.96 L 821.23 634.15 L 827.54 638.89 L 834.20 643.19 L 841.25 647.06 L 830.55 646.47 L 824.74 640.67 L 819.66 634.84 L 815.26 628.96 Z" fill="#2e2b77" fill-rule="nonzero" group-id="1" id="路径" node-id="97" stroke="none" target-height="18.098389" target-width="25.990356" target-x="815.2599" target-y="628.9647"></path><path d="M 201.95 644.07 L 208.93 646.13 L 224.41 661.21 L 190.63 661.05 L 158.19 661.06 L 155.61 660.86 L 153.15 660.23 L 150.75 659.17 L 148.40 657.64 L 146.07 655.58 L 147.64 653.16 L 149.23 651.00 L 151.02 649.11 L 153.05 647.63 L 154.55 646.93 L 156.29 646.46 L 158.33 646.24 L 180.49 645.95 L 202.63 646.05 L 203.24 645.94 L 203.34 645.70 L 203.00 645.18 L 201.95 644.07 Z" fill="#e1e6ff" fill-rule="nonzero" group-id="1" id="路径" node-id="98" stroke="none" target-height="17.134033" target-width="78.34076" target-x="146.06844" target-y="644.0735"></path><path d="M 590.07 644.22 L 629.65 818.16 L 629.50 818.82 L 628.89 819.09 L 624.62 818.93 L 623.85 818.68 L 623.46 817.99 L 584.30 644.91 L 585.32 644.39 L 587.11 644.11 L 590.07 644.22 Z" fill="#191a7d" fill-rule="nonzero" group-id="1" id="路径" node-id="99" stroke="none" target-height="174.98578" target-width="45.34247" target-x="584.30414" target-y="644.109"></path><path d="M 208.93 646.13 L 218.17 646.81 L 227.10 647.21 L 235.74 647.34 L 241.00 647.58 L 245.98 648.39 L 249.18 649.32 L 252.16 650.61 L 254.93 652.27 L 257.40 654.32 L 259.61 656.90 L 261.57 660.07 L 261.65 660.66 L 261.09 660.85 L 224.41 661.21 L 208.93 646.13 Z" fill="#cbd2ff" fill-rule="nonzero" group-id="1" id="路径" node-id="100" stroke="none" target-height="15.07666" target-width="52.720062" target-x="208.9307" target-y="646.13086"></path><path d="M 808.67 646.47 L 811.63 650.04 L 813.90 653.70 L 815.53 657.47 L 816.58 661.38 L 770.22 661.51 L 770.61 659.63 L 771.55 657.37 L 773.21 654.62 L 775.76 652.26 L 778.35 650.43 L 781.01 649.07 L 783.82 648.03 L 786.72 647.29 L 789.72 646.82 L 794.30 646.49 L 799.04 646.44 L 808.67 646.47 Z" fill="#e1e6ff" fill-rule="nonzero" group-id="1" id="路径" node-id="101" stroke="none" target-height="15.070862" target-width="46.355103" target-x="770.2228" target-y="646.4421"></path><path d="M 808.67 646.47 L 811.69 646.50 L 830.55 646.47 L 841.25 647.06 L 864.11 651.21 L 871.11 651.97 L 878.03 652.41 L 882.64 652.44 L 887.15 652.17 L 891.57 651.61 L 895.91 650.68 L 900.14 649.29 L 904.27 647.45 L 904.83 651.69 L 905.74 655.16 L 906.96 657.99 L 904.42 659.72 L 902.11 660.70 L 899.97 661.06 L 883.18 661.48 L 856.48 661.63 L 816.58 661.38 L 815.53 657.47 L 813.90 653.70 L 811.63 650.04 L 808.67 646.47 Z" fill="#cbd2ff" fill-rule="nonzero" group-id="1" id="路径" node-id="102" stroke="none" target-height="15.164917" target-width="98.2876" target-x="808.66986" target-y="646.4684"></path><path d="M 773.21 654.62 L 771.55 657.37 L 770.61 659.63 L 770.22 661.51 L 766.78 662.41 L 764.06 663.64 L 761.95 665.16 L 756.64 660.48 L 773.21 654.62 Z" fill="#909afb" fill-rule="nonzero" group-id="1" id="路径" node-id="103" stroke="none" target-height="10.543945" target-width="16.571472" target-x="756.6409" target-y="654.61755"></path><path d="M 756.64 660.48 L 761.95 665.16 L 775.29 665.84 L 775.91 666.09 L 775.98 666.75 L 765.90 708.21 L 754.71 685.74 L 753.67 681.39 L 753.05 676.82 L 752.88 672.00 L 753.18 666.89 L 753.97 661.46 L 754.29 660.85 L 754.94 660.60 L 756.64 660.48 Z" fill="#fdfdfd" fill-opacity="0.01" fill-rule="nonzero" group-id="1" id="路径" node-id="104" stroke="none" target-height="47.721313" target-width="23.093262" target-x="752.8837" target-y="660.48425"></path><path d="M 254.08 694.22 L 247.75 666.93 L 247.85 666.49 L 248.26 666.29 L 260.28 666.27 L 260.71 666.46 L 260.81 666.91 L 255.13 694.21 L 254.95 694.52 L 254.61 694.65 L 254.27 694.53 L 254.08 694.22 Z" fill="#fdfdfd" fill-opacity="0" fill-rule="nonzero" group-id="1" id="路径" node-id="105" stroke="none" target-height="28.382141" target-width="13.067505" target-x="247.74747" target-y="666.27045"></path><path d="M 782.29 749.48 L 770.25 715.26 L 782.21 667.20 L 782.62 666.58 L 783.34 666.32 L 798.38 666.21 L 798.89 666.38 L 798.98 666.91 L 782.29 749.48 Z" fill="#fdfdfd" fill-opacity="0" fill-rule="nonzero" group-id="1" id="路径" node-id="106" stroke="none" target-height="83.27521" target-width="28.722778" target-x="770.25494" target-y="666.2063"></path><path d="M 70.04 735.96 L 69.36 735.60 L 69.11 734.87 L 68.93 726.78 L 69.19 718.69 L 69.89 710.59 L 71.04 702.45 L 72.03 698.18 L 74.06 691.08 L 75.37 687.17 L 76.80 683.47 L 78.41 680.05 L 79.91 677.65 L 81.09 676.39 L 82.10 675.90 L 83.03 675.93 L 83.51 676.23 L 83.82 676.71 L 83.91 677.27 L 83.75 677.81 L 80.86 683.89 L 78.46 690.04 L 76.55 696.30 L 75.05 702.67 L 73.91 709.12 L 73.14 715.65 L 72.53 725.52 L 72.50 735.48 L 72.40 736.01 L 72.12 736.25 L 71.59 736.25 L 70.04 735.96 Z" fill="#8edec6" fill-rule="nonzero" group-id="1" id="路径" node-id="107" stroke="none" target-height="60.35565" target-width="14.977295" target-x="68.92906" target-y="675.89764"></path><path d="M 1001.84 772.02 L 1000.30 771.27 L 999.23 770.10 L 998.59 768.40 L 992.99 742.23 L 987.15 716.11 L 986.76 715.19 L 986.19 714.77 L 985.36 714.76 L 984.08 715.31 L 983.72 715.68 L 983.69 716.19 L 996.07 773.14 L 993.56 773.56 L 993.68 772.73 L 993.26 769.93 L 991.26 761.98 L 988.13 751.34 L 984.48 739.64 L 980.89 728.51 L 977.94 719.58 L 976.23 714.47 L 975.44 712.70 L 974.65 711.79 L 973.87 711.45 L 972.87 711.45 L 972.36 711.74 L 972.14 712.29 L 972.28 713.28 L 988.19 766.58 L 950.16 742.70 L 947.50 740.82 L 944.69 738.43 L 942.11 735.72 L 939.88 732.77 L 938.64 730.66 L 937.75 728.56 L 937.18 726.46 L 936.85 723.14 L 937.03 720.35 L 937.64 718.01 L 938.67 715.79 L 940.02 713.71 L 941.72 711.77 L 944.61 709.02 L 947.98 706.08 L 948.37 705.47 L 948.36 704.73 L 947.74 702.08 L 947.26 698.72 L 947.08 695.24 L 947.29 691.71 L 947.69 689.39 L 948.33 687.31 L 949.22 685.44 L 950.41 683.81 L 951.93 682.56 L 953.83 681.67 L 955.95 681.24 L 957.82 681.25 L 959.51 681.64 L 961.87 682.82 L 964.00 684.59 L 965.88 686.71 L 967.58 689.06 L 970.53 693.63 L 970.91 694.01 L 971.26 694.02 L 971.67 693.66 L 973.82 690.76 L 976.15 687.95 L 978.71 685.41 L 981.49 683.40 L 984.34 682.04 L 987.12 681.21 L 989.85 680.89 L 992.59 681.01 L 995.21 681.56 L 997.72 682.53 L 1000.05 683.89 L 1002.18 685.59 L 1004.11 687.67 L 1005.72 690.01 L 1007.03 692.66 L 1008.03 695.64 L 1008.90 700.01 L 1009.37 704.85 L 1009.39 710.19 L 1008.91 716.11 L 1001.84 772.02 Z" fill="#8edec6" fill-rule="nonzero" group-id="1" id="路径" node-id="108" stroke="none" target-height="92.671265" target-width="72.54443" target-x="936.84607" target-y="680.8879"></path><path d="M 754.71 685.74 L 765.90 708.21 L 750.71 770.06 L 739.88 756.57 L 751.87 687.02 L 752.20 686.40 L 752.83 686.07 L 754.71 685.74 Z" fill="#5a4fa6" fill-rule="nonzero" group-id="1" id="路径" node-id="109" stroke="none" target-height="84.31995" target-width="26.02246" target-x="739.8766" target-y="685.7352"></path><path d="M 35.63 699.77 L 37.52 700.55 L 40.21 702.36 L 42.95 704.66 L 46.10 707.68 L 49.21 710.98 L 52.37 714.60 L 55.39 718.34 L 58.12 721.99 L 60.58 725.62 L 62.42 728.72 L 63.81 731.68 L 64.35 733.67 L 64.15 734.48 L 63.49 734.98 L 62.66 734.96 L 62.02 734.42 L 58.33 728.22 L 54.29 722.35 L 49.91 716.79 L 45.18 711.52 L 40.08 706.55 L 34.60 701.86 L 34.17 701.18 L 34.27 700.39 L 34.84 699.84 L 35.63 699.77 L 35.63 699.77 Z" fill="#8edec6" fill-rule="nonzero" group-id="1" id="路径" node-id="110" stroke="none" target-height="35.214966" target-width="30.179203" target-x="34.1731" target-y="699.7671"></path><path d="M 993.56 773.56 L 992.36 773.82 L 991.47 773.69 L 990.76 773.25 L 988.19 766.58 L 972.28 713.28 L 972.14 712.29 L 972.36 711.74 L 972.87 711.45 L 973.87 711.45 L 974.65 711.79 L 975.44 712.70 L 976.23 714.47 L 977.94 719.58 L 980.89 728.51 L 984.48 739.64 L 988.13 751.34 L 991.26 761.98 L 993.26 769.93 L 993.68 772.73 L 993.56 773.56 Z" fill="#00a06d" fill-rule="nonzero" group-id="1" id="路径" node-id="111" stroke="none" target-height="62.363403" target-width="21.538757" target-x="972.14197" target-y="711.45233"></path><path d="M 1001.84 772.02 L 1001.63 772.22 L 1001.64 773.86 L 999.48 773.97 L 997.64 773.71 L 996.07 773.14 L 983.69 716.19 L 983.72 715.68 L 984.08 715.31 L 985.36 714.76 L 986.19 714.77 L 986.75 715.19 L 987.15 716.11 L 992.99 742.23 L 998.59 768.40 L 999.23 770.10 L 1000.30 771.27 L 1001.84 772.02 Z" fill="#00a980" fill-rule="nonzero" group-id="1" id="路径" node-id="112" stroke="none" target-height="59.205505" target-width="18.146667" target-x="983.69086" target-y="714.76086"></path><path d="M 770.25 715.26 L 782.29 749.48 L 772.57 797.27 L 755.29 776.74 Z" fill="#7375ae" fill-rule="nonzero" group-id="1" id="路径" node-id="113" stroke="none" target-height="82.00543" target-width="27.00299" target-x="755.2908" target-y="715.2617"></path><path d="M 83.72 747.05 L 83.02 746.22 L 82.78 745.12 L 83.08 743.58 L 84.19 741.19 L 86.27 738.13 L 88.80 735.07 L 91.86 731.80 L 95.10 728.63 L 98.36 725.68 L 101.61 722.96 L 104.34 720.87 L 106.88 719.17 L 108.31 718.46 L 108.96 718.50 L 109.44 718.93 L 109.53 719.58 L 109.20 720.13 L 103.53 724.74 L 98.29 729.70 L 93.46 735.02 L 89.02 740.71 L 84.97 746.80 L 84.41 747.26 L 83.72 747.05 Z" fill="#8edec6" fill-rule="nonzero" group-id="1" id="路径" node-id="114" stroke="none" target-height="28.79535" target-width="26.751099" target-x="82.780655" target-y="718.46027"></path><path d="M 295.20 753.23 L 289.83 790.02 L 289.64 790.76 L 289.51 790.76 L 289.26 790.03 L 285.29 771.77 L 285.25 770.77 L 285.57 769.81 L 294.46 752.97 L 294.65 752.77 L 294.93 752.76 L 295.15 752.94 L 295.20 753.23 L 295.20 753.23 Z" fill="#fdfdfd" fill-opacity="0" fill-rule="nonzero" group-id="1" id="路径" node-id="115" stroke="none" target-height="38.000793" target-width="9.945374" target-x="285.25018" target-y="752.76154"></path><path d="M 56.43 756.86 L 56.92 757.39 L 57.91 757.42 L 61.73 756.88 L 66.24 756.65 L 75.56 756.83 L 84.12 757.12 L 84.58 757.69 L 84.69 758.11 L 79.23 759.03 L 73.48 760.15 L 70.74 761.06 L 68.30 762.32 L 66.86 763.41 L 65.62 764.76 L 64.56 766.41 L 59.29 777.16 L 54.66 787.46 L 50.65 797.35 L 47.22 806.83 L 45.93 810.18 L 44.50 813.13 L 42.94 815.72 L 35.42 789.08 L 28.38 762.73 L 28.13 760.94 L 28.33 759.74 L 28.85 758.93 L 29.68 758.38 L 30.88 758.04 L 32.58 757.98 L 40.34 758.10 L 48.28 757.73 L 56.43 756.86 Z" fill="#e1e6ff" fill-rule="nonzero" group-id="1" id="路径" node-id="116" stroke="none" target-height="59.069702" target-width="56.552376" target-x="28.132956" target-y="756.6495"></path><path d="M 42.94 815.72 L 44.50 813.13 L 45.93 810.18 L 47.22 806.83 L 50.65 797.35 L 54.66 787.46 L 59.29 777.16 L 64.56 766.41 L 65.62 764.76 L 66.86 763.41 L 68.30 762.32 L 70.74 761.06 L 73.48 760.15 L 76.34 759.51 L 79.23 759.03 L 84.68 758.11 L 109.57 758.00 L 110.65 758.17 L 111.58 758.61 L 112.39 759.35 L 112.93 760.31 L 113.15 761.31 L 113.07 762.40 L 100.15 817.87 L 99.93 818.38 L 99.58 818.76 L 99.11 819.01 L 98.57 819.09 L 92.64 819.11 L 82.16 819.20 L 69.60 819.28 L 57.41 819.27 L 48.07 819.09 L 44.79 818.86 L 44.04 818.66 L 43.31 817.49 L 42.94 815.72 Z" fill="#cbd2ff" fill-rule="nonzero" group-id="1" id="路径" node-id="117" stroke="none" target-height="61.275024" target-width="70.210075" target-x="42.94281" target-y="758.0003"></path><path d="M 785.85 763.79 L 791.66 782.18 L 796.85 800.25 L 801.42 817.99 L 801.43 818.53 L 801.21 818.80 L 800.68 818.89 L 792.56 818.42 L 791.93 818.14 L 791.63 817.50 L 791.31 813.97 L 791.19 813.62 L 790.92 813.37 L 790.56 813.28 L 790.20 813.37 L 789.62 813.68 L 788.92 813.81 L 788.27 813.50 L 777.44 803.07 L 785.85 763.79 Z" fill="#7375ae" fill-rule="nonzero" group-id="1" id="路径" node-id="118" stroke="none" target-height="55.098877" target-width="23.993652" target-x="777.43964" target-y="763.7867"></path><path d="M 990.76 773.25 L 991.47 773.69 L 992.36 773.82 L 993.56 773.56 L 996.07 773.14 L 997.64 773.71 L 999.48 773.97 L 1001.64 773.86 L 1021.88 773.83 L 1022.77 774.03 L 1023.50 774.59 L 1023.92 775.39 L 1023.97 776.31 L 1017.09 818.10 L 1016.78 818.71 L 1016.13 818.90 L 1000.07 818.66 L 998.00 813.19 L 995.67 807.94 L 993.08 802.90 L 988.76 795.54 L 983.99 788.32 L 978.92 781.21 L 973.55 773.93 L 990.76 773.25 Z" fill="#cbd2ff" fill-rule="nonzero" group-id="1" id="路径" node-id="119" stroke="none" target-height="45.760742" target-width="50.42163" target-x="973.5487" target-y="773.14124"></path><path d="M 973.55 773.93 L 978.92 781.21 L 983.99 788.32 L 988.76 795.54 L 993.08 802.90 L 995.67 807.94 L 998.00 813.19 L 1000.07 818.66 L 977.62 818.81 L 976.91 818.60 L 976.55 817.95 L 969.32 780.55 L 969.06 778.18 L 969.14 775.81 L 969.39 775.12 L 969.93 774.62 L 971.73 773.96 L 973.55 773.93 Z" fill="#e1e6ff" fill-rule="nonzero" group-id="1" id="路径" node-id="120" stroke="none" target-height="44.876648" target-width="31.009216" target-x="969.06024" target-y="773.92883"></path><path d="M 555.97 800.92 L 564.74 817.84 L 564.73 818.32 L 564.31 818.55 L 529.57 818.63 L 529.07 818.44 L 528.82 817.97 L 527.20 806.06 L 551.55 805.75 L 552.31 805.58 L 552.91 805.06 L 555.97 800.92 Z" fill="#f13860" fill-rule="nonzero" group-id="1" id="路径" node-id="121" stroke="none" target-height="17.712708" target-width="37.546997" target-x="527.19604" target-y="800.9157"></path></g></svg>